<?xml version="1.0" encoding="UTF-8" standalone="no"?>
<!DOCTYPE svg PUBLIC "-//W3C//DTD SVG 1.1//EN" "http://www.w3.org/Graphics/SVG/1.1/DTD/svg11.dtd">
<svg xmlns="http://www.w3.org/2000/svg" xmlns:xlink="http://www.w3.org/1999/xlink" version="1.1" width="366.24pt" height="125.958pt" viewBox="0 0 366.24 125.958">
<g enable-background="new">
<path transform="matrix(1,0,0,-1,15.12,27.787003)" stroke-width="1.19553" stroke-linecap="butt" stroke-miterlimit="10" stroke-linejoin="miter" fill="none" stroke="#000000" d="M 14.17339 0 C 14.17339 7.82784 7.82784 14.17339 0 14.17339 C -7.82784 14.17339 -14.17339 7.82784 -14.17339 0 C -14.17339 -7.82784 -7.82784 -14.17339 0 -14.17339 C 7.82784 -14.17339 14.17339 -7.82784 14.17339 0 Z M 0 0 "/>
<symbol id="font_0_1">
<path d="M .49800004 .409 C .462 .39900003 .444 .365 .444 .34 C .444 .318 .46100004 .294 .49400003 .294 C .52900007 .294 .56600007 .323 .56600007 .372 C .56600007 .425 .513 .46 .45200003 .46 C .39500005 .46 .35800005 .417 .34500004 .39900003 C .32 .441 .264 .46 .207 .46 C .081 .46 .013 .337 .013 .304 C .013 .29 .027999998 .29 .037 .29 C .049000004 .29 .056 .29 .060000004 .303 C .089 .394 .16100002 .424 .202 .424 C .24000003 .424 .25800003 .40600003 .25800003 .374 C .25800003 .355 .244 .3 .235 .264 L .201 .127 C .186 .066 .15 .036000004 .11600001 .036000004 C .111 .036000004 .088 .036000004 .068 .051000004 C .104 .061000006 .12200001 .095000009 .12200001 .120000008 C .12200001 .142 .105000007 .16600001 .072000008 .16600001 C .037 .16600001 0 .13700001 0 .08800001 C 0 .035 .053000004 0 .11400001 0 C .171 0 .208 .043 .221 .061000006 C .246 .019000002 .302 0 .35900004 0 C .485 0 .55300006 .123 .55300006 .156 C .55300006 .17 .53800007 .17 .52900007 .17 C .517 .17 .51000007 .17 .50600007 .157 C .47700007 .066 .40500004 .036000004 .36400003 .036000004 C .32600004 .036000004 .30800004 .054000006 .30800004 .086 C .30800004 .10700001 .32100005 .16000001 .33000005 .19700001 C .337 .223 .36 .317 .365 .333 C .38 .393 .41500003 .424 .45000006 .424 C .45500005 .424 .47800005 .424 .49800004 .409 Z "/>
</symbol>
<use xlink:href="#font_0_1" transform="matrix(11.9552,0,0,-11.9552,9.268297,29.642647)"/>
<symbol id="font_1_1">
<path d="M .448 .34 C .448 .44700004 .437 .512 .404 .57600006 C .36 .66400006 .279 .68600007 .224 .68600007 C .09800001 .68600007 .052 .59200009 .038000004 .56400009 C .0020000004 .49100004 0 .39200003 0 .34 C 0 .27400003 .0030000024 .17300001 .051000008 .09300001 C .09700001 .019000002 .171 0 .224 0 C .272 0 .358 .0150000019 .40800003 .11400001 C .44500003 .186 .448 .275 .448 .34 M .224 .028 C .19 .028 .121 .044000005 .1 .149 C .08900001 .206 .08900001 .3 .08900001 .35200004 C .08900001 .421 .08900001 .49100004 .1 .54600009 C .121 .64800009 .199 .65800008 .224 .65800008 C .25800003 .65800008 .32700003 .64100006 .347 .5500001 C .359 .49500004 .359 .42000003 .359 .35200004 C .359 .293 .359 .20300001 .347 .147 C .326 .042000005 .257 .028 .224 .028 Z "/>
</symbol>
<use xlink:href="#font_1_1" transform="matrix(7.9701,0,0,-7.9701,17.019776,31.507376)"/>
<path transform="matrix(1,0,0,-1,15.12,27.787003)" stroke-width="1.19553" stroke-linecap="butt" stroke-miterlimit="10" stroke-linejoin="miter" fill="none" stroke="#000000" d="M 97.57448 0 C 97.57448 7.82784 91.22893 14.17339 83.4011 14.17339 C 75.57324 14.17339 69.22769 7.82784 69.22769 0 C 69.22769 -7.82784 75.57324 -14.17339 83.4011 -14.17339 C 91.22893 -14.17339 97.57448 -7.82784 97.57448 0 Z M 83.4011 0 "/>
<use xlink:href="#font_0_1" transform="matrix(11.9552,0,0,-11.9552,92.668308,29.642647)"/>
<symbol id="font_1_2">
<path d="M .21800001 .637 C .21800001 .66400006 .216 .665 .18900003 .665 C .14800002 .625 .09500001 .601 0 .601 L 0 .568 C .027000003 .568 .081 .568 .13900002 .595 L .13900002 .082 C .13900002 .045 .136 .033 .04100001 .033 L .0060000049 .033 L .0060000049 0 C .047000007 .003 .13300002 .003 .17800002 .003 C .223 .003 .31 .003 .351 0 L .351 .033 L .31600005 .033 C .221 .033 .21800001 .045 .21800001 .082 L .21800001 .637 Z "/>
</symbol>
<use xlink:href="#font_1_2" transform="matrix(7.9701,0,0,-7.9701,100.85813,31.340004)"/>
<symbol id="font_2_1">
<path d="M .09700001 .048 C .09700001 .07700001 .07300001 .097 .049000004 .097 C .020000004 .097 0 .07300001 0 .049000004 C 0 .020000002 .024000004 0 .048 0 C .077 0 .09700001 .024 .09700001 .048 Z "/>
</symbol>
<use xlink:href="#font_2_1" transform="matrix(24.7871,0,0,-24.7871,122.200489,28.992005)"/>
<use xlink:href="#font_2_1" transform="matrix(24.7871,0,0,-24.7871,133.08202,28.992005)"/>
<use xlink:href="#font_2_1" transform="matrix(24.7871,0,0,-24.7871,143.93877,28.992005)"/>
<path transform="matrix(1,0,0,-1,15.12,27.787003)" stroke-width="1.19553" stroke-linecap="butt" stroke-miterlimit="10" stroke-linejoin="miter" fill="none" stroke="#000000" d="M 220.13492 0 C 220.13492 7.82784 213.78937 14.17339 205.96152 14.17339 C 198.13367 14.17339 191.78812 7.82784 191.78812 0 C 191.78812 -7.82784 198.13367 -14.17339 205.96152 -14.17339 C 213.78937 -14.17339 220.13492 -7.82784 220.13492 0 Z M 205.96152 0 "/>
<use xlink:href="#font_0_1" transform="matrix(11.9552,0,0,-11.9552,215.0333,29.642647)"/>
<symbol id="font_3_2">
<path d="M .23500002 .674 C .236 .676 .239 .689 .239 .69 C .239 .69500008 .23500002 .704 .22299999 .704 C .21900001 .704 .188 .70100006 .16500002 .699 L .109000008 .69500008 C .087000008 .693 .077 .69200006 .077 .674 C .077 .66 .091 .66 .10300001 .66 C .151 .66 .151 .65400007 .151 .64500007 C .151 .642 .151 .64000007 .146 .62200006 L .0040000008 .053000004 C 0 .038000004 0 .032 0 .031000004 C 0 .014 .013999999 0 .033 0 C .067 0 .074999999 .032 .079 .046000005 C .08900001 .088 .115 .19400002 .12600002 .23600002 C .181 .23000002 .248 .21100001 .248 .15400002 C .248 .14900002 .248 .14400001 .24599999 .134 C .243 .12100001 .241 .107 .241 .102000009 C .241 .043 .285 0 .343 0 C .38500003 0 .411 .031000004 .42400003 .050000006 C .44799999 .087000008 .46400003 .14700002 .46400003 .15300001 C .46400003 .16300002 .456 .16600001 .44900004 .16600001 C .437 .16600001 .435 .16000001 .43100003 .142 C .418 .095 .39200003 .028 .345 .028 C .319 .028 .313 .050000006 .313 .077 C .313 .09 .314 .102000009 .319 .125 C .32 .12900001 .324 .14500001 .324 .15600002 C .324 .23800002 .22100002 .256 .17000002 .263 C .20699999 .285 .241 .319 .253 .33200003 C .308 .386 .35300002 .423 .40100003 .423 C .414 .423 .426 .42000003 .43400003 .41 C .38 .403 .38 .356 .38 .35500003 C .38 .333 .397 .31800003 .419 .31800003 C .446 .31800003 .47600005 .34 .47600005 .381 C .47600005 .41500003 .452 .451 .402 .451 C .344 .451 .292 .407 .23500002 .35 C .17700002 .293 .15200001 .282 .136 .275 L .23500002 .674 Z "/>
</symbol>
<use xlink:href="#font_3_2" transform="matrix(7.9701,0,0,-7.9701,222.9123,31.419705)"/>
<use xlink:href="#font_2_1" transform="matrix(24.7871,0,0,-24.7871,252.24147,28.992005)"/>
<use xlink:href="#font_2_1" transform="matrix(24.7871,0,0,-24.7871,263.12297,28.992005)"/>
<use xlink:href="#font_2_1" transform="matrix(24.7871,0,0,-24.7871,273.9797,28.992005)"/>
<path transform="matrix(1,0,0,-1,15.12,27.787003)" stroke-width="1.19553" stroke-linecap="butt" stroke-miterlimit="10" stroke-linejoin="miter" fill="none" stroke="#000000" d="M 350.17835 0 C 350.17835 7.82784 343.8328 14.17339 336.00495 14.17339 C 328.1771 14.17339 321.83155 7.82784 321.83155 0 C 321.83155 -7.82784 328.1771 -14.17339 336.00495 -14.17339 C 343.8328 -14.17339 350.17835 -7.82784 350.17835 0 Z M 336.00495 0 "/>
<use xlink:href="#font_0_1" transform="matrix(11.9552,0,0,-11.9552,343.53428,29.642647)"/>
<symbol id="font_3_1">
<path d="M .488 .402 C .48700003 .404 .48200003 .41400004 .48200003 .41500003 C .48200003 .41700004 .49900005 .42900003 .509 .43600003 C .588 .49400003 .69600006 .572 .72900006 .59300008 C .78000006 .625 .81700006 .646 .86200007 .65000006 C .87 .651 .884 .652 .884 .67 C .883 .67700007 .87700006 .683 .87 .683 C .869 .683 .841 .68 .834 .68 L .794 .68 C .777 .68 .75200006 .68 .74300006 .68100008 C .736 .68100008 .697 .683 .69 .683 C .683 .683 .669 .683 .669 .66400006 C .669 .66300007 .67 .651 .685 .65000006 C .693 .64900007 .709 .647 .709 .63500007 C .709 .619 .689 .60200008 .68700006 .601 L .679 .59400007 C .676 .591 .672 .587 .667 .58400008 L .25900004 .28800003 L .33800004 .605 C .34700004 .64100006 .34900005 .65000006 .42200003 .65000006 C .44200004 .65000006 .45400004 .65000006 .45400004 .669 C .45400004 .67 .45300005 .683 .43700005 .683 C .418 .683 .39400003 .68100008 .37500004 .68 L .31200005 .68 C .21600002 .68 .19 .683 .183 .683 C .178 .683 .16300002 .683 .16300002 .66400006 C .16300002 .65000006 .17500001 .65000006 .192 .65000006 C .22500003 .65000006 .254 .65000006 .254 .634 C .254 .63000008 .25300003 .629 .25000004 .61600008 L .116000007 .079 C .107 .041 .10500001 .033 .031000004 .033 C .012000002 .033 0 .033 0 .014 C 0 .010000001 .0029999987 0 .016000003 0 C .035000005 0 .059 .002 .078 .003 L .20700002 .003 C .22300002 .002 .256 0 .27100004 0 C .27600003 0 .291 0 .291 .018000002 C .291 .033 .279 .033 .26200003 .033 C .25500003 .033 .24100003 .033 .224 .035 C .20300001 .037 .20000002 .039 .20000002 .049000004 C .20000002 .055000005 .20700002 .080000009 .21000001 .096 L .24800003 .24700001 L .40900005 .363 L .529 .116000007 C .533 .108 .544 .086 .548 .07700001 C .554 .067 .554 .065000008 .554 .061000006 C .554 .034 .517 .033 .506 .033 C .49600003 .033 .48200003 .033 .48200003 .014 C .48200003 .013 .483 0 .49900005 0 C .509 0 .547 .002 .556 .003 L .614 .003 C .70600005 .003 .703 0 .716 0 C .72 0 .735 0 .735 .019000002 C .735 .033 .721 .033 .71500006 .033 C .676 .034 .663 .041 .647 .075 L .488 .402 Z "/>
</symbol>
<use xlink:href="#font_3_1" transform="matrix(7.9701,0,0,-7.9701,351.3485,31.340004)"/>
<path transform="matrix(1,0,0,-1,15.12,27.787003)" stroke-width="1.19553" stroke-linecap="butt" stroke-miterlimit="10" stroke-linejoin="miter" fill="none" stroke="#000000" d="M 97.57448 -83.4011 C 97.57448 -75.57324 91.22893 -69.22769 83.4011 -69.22769 C 75.57324 -69.22769 69.22769 -75.57324 69.22769 -83.4011 C 69.22769 -91.22893 75.57324 -97.57448 83.4011 -97.57448 C 91.22893 -97.57448 97.57448 -91.22893 97.57448 -83.4011 Z M 83.4011 -83.4011 "/>
<symbol id="font_0_2">
<path d="M .545 .579 C .55 .597 .55 .59900006 .55 .602 C .55 .624 .53400006 .646 .503 .646 C .451 .646 .439 .59900006 .432 .572 L .40600003 .468 C .39400003 .42000003 .375 .343 .36400003 .30200003 C .35900004 .28 .328 .256 .32500003 .254 C .314 .24700001 .29000003 .23 .257 .23 C .198 .23 .19700001 .28 .19700001 .303 C .19700001 .36400003 .22800002 .44200004 .256 .514 C .266 .54 .26900003 .54700008 .26900003 .564 C .26900003 .62200006 .21100001 .65400007 .156 .65400007 C .05 .65400007 0 .518 0 .49800004 C 0 .48400004 .015000001 .48400004 .024 .48400004 C .036000004 .48400004 .043 .48400004 .047000003 .49700005 C .08 .60800006 .135 .61800006 .15 .61800006 C .157 .61800006 .16700001 .61800006 .16700001 .597 C .16700001 .574 .156 .54800006 .15 .532 C .111 .432 .09 .375 .09 .324 C .09 .21000001 .19000001 .194 .24900002 .194 C .27400003 .194 .308 .19800002 .345 .224 C .317 .101 .24200002 .036 .17300001 .036 C .16 .036 .132 .038000004 .112 .049999998 C .14400001 .06299999 .16 .09 .16 .117000009 C .16 .153 .131 .163 .111 .163 C .074 .163 .039 .13100001 .039 .087000008 C .039 .036 .09200001 0 .17300001 0 C .28800003 0 .42000003 .07700001 .451 .201 L .545 .579 Z "/>
</symbol>
<use xlink:href="#font_0_2" transform="matrix(11.9552,0,0,-11.9552,93.00757,115.09595)"/>
<use xlink:href="#font_1_2" transform="matrix(7.9701,0,0,-7.9701,100.44713,114.475)"/>
<path transform="matrix(1,0,0,-1,15.12,27.787003)" stroke-width="1.19553" stroke-linecap="butt" stroke-miterlimit="10" stroke-linejoin="miter" fill="none" stroke="#000000" d="M 220.13492 -83.4011 C 220.13492 -75.57324 213.78937 -69.22769 205.96152 -69.22769 C 198.13367 -69.22769 191.78812 -75.57324 191.78812 -83.4011 C 191.78812 -91.22893 198.13367 -97.57448 205.96152 -97.57448 C 213.78937 -97.57448 220.13492 -91.22893 220.13492 -83.4011 Z M 205.96152 -83.4011 "/>
<use xlink:href="#font_0_2" transform="matrix(11.9552,0,0,-11.9552,215.37256,115.09595)"/>
<use xlink:href="#font_3_2" transform="matrix(7.9701,0,0,-7.9701,222.5013,114.5547)"/>
<path transform="matrix(1,0,0,-1,15.12,27.787003)" stroke-width="1.19553" stroke-linecap="butt" stroke-miterlimit="10" stroke-linejoin="miter" fill="none" stroke="#000000" d="M 350.17835 -83.4011 C 350.17835 -75.57324 343.8328 -69.22769 336.00495 -69.22769 C 328.1771 -69.22769 321.83155 -75.57324 321.83155 -83.4011 C 321.83155 -91.22893 328.1771 -97.57448 336.00495 -97.57448 C 343.8328 -97.57448 350.17835 -91.22893 350.17835 -83.4011 Z M 336.00495 -83.4011 "/>
<use xlink:href="#font_0_2" transform="matrix(11.9552,0,0,-11.9552,343.87358,115.09595)"/>
<use xlink:href="#font_3_1" transform="matrix(7.9701,0,0,-7.9701,350.93754,114.475)"/>
<path transform="matrix(1,0,0,-1,15.12,27.787003)" stroke-width="1.19553" stroke-linecap="butt" stroke-miterlimit="10" stroke-linejoin="miter" fill="none" stroke="#000000" d="M 14.26784 3.82259 C 34.93468 9.36024 48.46642 9.36024 63.59023 5.30766 "/>
<path transform="matrix(.96593,.25879,.25879,-.96593,78.71023,22.479344)" d="M 5.73854 0 C 4.0382 .31879 1.27522 1.27522 -.6376 2.39105 L -.6376 -2.39105 C 1.27522 -1.27522 4.0382 -.31879 5.73854 0 "/>
<symbol id="font_2_2">
<path d="M .074 .067 C .067 .037 .063 .029 .022 .029 C .01 .029 0 .029 0 .00999999 C 0 .008000001 .0010000002 0 .012 0 C .025000003 0 .039 .002000004 .052 .002000004 L .095000009 .002000004 C .116000007 .002000004 .16700001 0 .18800001 0 C .194 0 .20600002 0 .20600002 .017999992 C .20600002 .029 .19900002 .029 .18200001 .029 C .136 .029 .133 .036 .133 .044 C .133 .055999996 .178 .22800002 .18400002 .25100003 C .19500001 .223 .22200002 .184 .27400003 .184 C .387 .184 .509 .33100004 .509 .47800002 C .509 .57000008 .45700003 .635 .382 .635 C .318 .635 .264 .573 .25300003 .559 C .24500002 .609 .20600002 .635 .16600001 .635 C .13700001 .635 .11400001 .62100008 .095000009 .58300009 C .07700001 .54700008 .063 .48600004 .063 .48200003 C .063 .47800002 .067 .47300003 .074 .47300003 C .082 .47300003 .083000008 .474 .089 .497 C .10400001 .556 .12300001 .615 .163 .615 C .186 .615 .194 .59900006 .194 .569 C .194 .545 .19100002 .535 .187 .517 L .074 .067 M .24700001 .50600007 C .254 .53400006 .282 .563 .298 .577 C .30900003 .587 .342 .615 .38 .615 C .424 .615 .444 .571 .444 .51900008 C .444 .47100003 .416 .358 .391 .306 C .366 .252 .32 .20400001 .27400003 .20400001 C .20600002 .20400001 .19500001 .29000003 .19500001 .294 C .19500001 .29700003 .19700001 .305 .19800002 .31 L .24700001 .50600007 Z "/>
</symbol>
<use xlink:href="#font_2_2" transform="matrix(11.9552,0,0,-11.9552,34.687387,15.223309)"/>
<symbol id="font_4_1">
<path d="M .22700002 .008000001 C .22700002 .011000007 .22700002 .013000011 .21000003 .030000002 C .11 .13100001 .054000006 .296 .054000006 .5 C .054000006 .694 .10100001 .86100009 .21700002 .9790001 C .22700002 .98800006 .22700002 .99 .22700002 .99300006 C .22700002 .9990001 .22200002 1.001 .21800001 1.001 C .205 1.001 .12300001 .929 .074 .8310001 C .023000002 .73 0 .623 0 .5 C 0 .411 .013999999 .29200004 .066 .18500002 C .125 .06500001 .207 0 .21800001 0 C .22200002 0 .22700002 .002000004 .22700002 .008000001 Z "/>
</symbol>
<use xlink:href="#font_4_1" transform="matrix(11.9552,0,0,-11.9552,42.104608,15.904755)"/>
<use xlink:href="#font_0_1" transform="matrix(11.9552,0,0,-11.9552,45.940298,12.99964)"/>
<use xlink:href="#font_1_2" transform="matrix(7.9701,0,0,-7.9701,54.129129,14.696999)"/>
<symbol id="font_5_1">
<path d="M .040000008 .96400007 C .040000008 .98200008 .040000008 1 .02000001 1 C 0 1 0 .98200008 0 .96400007 L 0 .035999985 C 0 .017999992 0 0 .02000001 0 C .040000008 0 .040000008 .017999992 .040000008 .035999985 L .040000008 .96400007 Z "/>
</symbol>
<use xlink:href="#font_5_1" transform="matrix(11.9552,0,0,-11.9552,59.51967,15.892799)"/>
<use xlink:href="#font_0_1" transform="matrix(11.9552,0,0,-11.9552,61.872297,12.99964)"/>
<use xlink:href="#font_1_1" transform="matrix(7.9701,0,0,-7.9701,69.62277,14.86437)"/>
<symbol id="font_4_2">
<path d="M .227 .5 C .227 .57600006 .21700001 .70000007 .161 .816 C .102 .9360001 .02 1.001 .009 1.001 C .004999999 1.001 0 .9990001 0 .99300006 C 0 .99 0 .98800006 .017 .9710001 C .117 .87 .17300001 .70500007 .17300001 .50100007 C .17300001 .307 .126 .14000002 .010000002 .022 C 0 .013000011 0 .011000007 0 .008000001 C 0 .002000004 .004999999 0 .009 0 C .022000004 0 .104 .07200001 .153 .17000002 C .204 .272 .227 .38000003 .227 .5 Z "/>
</symbol>
<use xlink:href="#font_4_2" transform="matrix(11.9552,0,0,-11.9552,74.68654,15.904755)"/>
<path transform="matrix(1,0,0,-1,15.12,27.787003)" stroke-width="1.19553" stroke-linecap="butt" stroke-miterlimit="10" stroke-linejoin="miter" fill="none" stroke="#000000" d="M 137.33158 4.10625 C 157.91664 9.50702 171.16608 9.4379 186.1587 5.33656 "/>
<path transform="matrix(.96452,.26382,.26382,-.96452,201.2787,22.450444)" d="M 5.73854 0 C 4.0382 .31879 1.27522 1.27522 -.6376 2.39105 L -.6376 -2.39105 C 1.27522 -1.27522 4.0382 -.31879 5.73854 0 "/>
<use xlink:href="#font_2_2" transform="matrix(11.9552,0,0,-11.9552,151.72139,15.104313)"/>
<use xlink:href="#font_4_1" transform="matrix(11.9552,0,0,-11.9552,159.13962,15.785759)"/>
<use xlink:href="#font_0_1" transform="matrix(11.9552,0,0,-11.9552,162.9743,12.880645)"/>
<use xlink:href="#font_3_2" transform="matrix(7.9701,0,0,-7.9701,170.8533,14.657704)"/>
<use xlink:href="#font_5_1" transform="matrix(11.9552,0,0,-11.9552,176.94068,15.773804)"/>
<use xlink:href="#font_0_1" transform="matrix(11.9552,0,0,-11.9552,179.2933,12.880645)"/>
<use xlink:href="#font_3_2" transform="matrix(7.9701,0,0,-7.9701,187.1723,14.657704)"/>
<symbol id="font_6_1">
<path d="M .61100009 0 C .62700006 0 .64900007 0 .64900007 .022999987 C .64900007 .04599999 .62700006 .04599999 .61100009 .04599999 L .037999996 .04599999 C .022 .04599999 0 .04599999 0 .022999987 C 0 0 .022 0 .037999996 0 L .61100009 0 Z "/>
</symbol>
<use xlink:href="#font_6_1" transform="matrix(7.9701,0,0,-7.9701,192.04137,12.76879)"/>
<use xlink:href="#font_1_2" transform="matrix(7.9701,0,0,-7.9701,198.69113,14.578003)"/>
<use xlink:href="#font_4_2" transform="matrix(11.9552,0,0,-11.9552,203.31653,15.785759)"/>
<path transform="matrix(1,0,0,-1,15.12,27.787003)" stroke-width="1.19553" stroke-linecap="butt" stroke-miterlimit="10" stroke-linejoin="miter" fill="none" stroke="#000000" d="M 267.375 5.10422 C 288.05506 10.12666 301.3164 9.81303 316.23088 5.43777 "/>
<path transform="matrix(.95952,.28146,.28146,-.95952,331.35087,22.349213)" d="M 5.73854 0 C 4.0382 .31879 1.27522 1.27522 -.6376 2.39105 L -.6376 -2.39105 C 1.27522 -1.27522 4.0382 -.31879 5.73854 0 "/>
<use xlink:href="#font_2_2" transform="matrix(11.9552,0,0,-11.9552,278.75639,14.606312)"/>
<use xlink:href="#font_4_1" transform="matrix(11.9552,0,0,-11.9552,286.17359,15.287758)"/>
<use xlink:href="#font_0_1" transform="matrix(11.9552,0,0,-11.9552,290.00828,12.382644)"/>
<use xlink:href="#font_3_1" transform="matrix(7.9701,0,0,-7.9701,297.82353,14.080002)"/>
<use xlink:href="#font_5_1" transform="matrix(11.9552,0,0,-11.9552,307.05867,15.275803)"/>
<use xlink:href="#font_0_1" transform="matrix(11.9552,0,0,-11.9552,309.4113,12.382644)"/>
<use xlink:href="#font_3_1" transform="matrix(7.9701,0,0,-7.9701,317.22654,14.080002)"/>
<use xlink:href="#font_6_1" transform="matrix(7.9701,0,0,-7.9701,325.24137,12.270789)"/>
<use xlink:href="#font_1_2" transform="matrix(7.9701,0,0,-7.9701,331.89216,14.080002)"/>
<use xlink:href="#font_4_2" transform="matrix(11.9552,0,0,-11.9552,336.51655,15.287758)"/>
<path transform="matrix(1,0,0,-1,15.12,27.787003)" stroke-width="1.19553" stroke-linecap="butt" stroke-miterlimit="10" stroke-linejoin="miter" fill="none" stroke="#000000" d="M 87.22368 -14.26784 C 92.76134 -34.93468 92.76134 -48.46642 88.70876 -63.59023 "/>
<path transform="matrix(-.25879,.96593,.96593,.25879,103.828769,91.37723)" d="M 5.73854 0 C 4.0382 .31879 1.27522 1.27522 -.6376 2.39105 L -.6376 -2.39105 C 1.27522 -1.27522 4.0382 -.31879 5.73854 0 "/>
<use xlink:href="#font_2_2" transform="matrix(11.9552,0,0,-11.9552,109.66939,67.05231)"/>
<use xlink:href="#font_4_1" transform="matrix(11.9552,0,0,-11.9552,117.08661,67.73376)"/>
<use xlink:href="#font_0_2" transform="matrix(11.9552,0,0,-11.9552,120.84957,67.14795)"/>
<use xlink:href="#font_1_2" transform="matrix(7.9701,0,0,-7.9701,128.28914,66.527)"/>
<use xlink:href="#font_5_1" transform="matrix(11.9552,0,0,-11.9552,133.67867,67.7218)"/>
<use xlink:href="#font_0_1" transform="matrix(11.9552,0,0,-11.9552,136.0313,64.82864)"/>
<use xlink:href="#font_1_2" transform="matrix(7.9701,0,0,-7.9701,144.22113,66.527)"/>
<use xlink:href="#font_4_2" transform="matrix(11.9552,0,0,-11.9552,148.84552,67.73376)"/>
<path transform="matrix(1,0,0,-1,15.12,27.787003)" stroke-width="1.19553" stroke-linecap="butt" stroke-miterlimit="10" stroke-linejoin="miter" fill="none" stroke="#000000" d="M 209.78412 -14.26784 C 215.32178 -34.93468 215.32178 -48.46642 211.26918 -63.59023 "/>
<path transform="matrix(-.25879,.96593,.96593,.25879,226.38918,91.37723)" d="M 5.73854 0 C 4.0382 .31879 1.27522 1.27522 -.6376 2.39105 L -.6376 -2.39105 C 1.27522 -1.27522 4.0382 -.31879 5.73854 0 "/>
<use xlink:href="#font_2_2" transform="matrix(11.9552,0,0,-11.9552,232.2284,67.05231)"/>
<use xlink:href="#font_4_1" transform="matrix(11.9552,0,0,-11.9552,239.64562,67.73376)"/>
<use xlink:href="#font_0_2" transform="matrix(11.9552,0,0,-11.9552,243.40857,67.14795)"/>
<use xlink:href="#font_3_2" transform="matrix(7.9701,0,0,-7.9701,250.53731,66.606708)"/>
<use xlink:href="#font_5_1" transform="matrix(11.9552,0,0,-11.9552,256.62568,67.7218)"/>
<use xlink:href="#font_0_1" transform="matrix(11.9552,0,0,-11.9552,258.9783,64.82864)"/>
<use xlink:href="#font_3_2" transform="matrix(7.9701,0,0,-7.9701,266.8563,66.606708)"/>
<use xlink:href="#font_4_2" transform="matrix(11.9552,0,0,-11.9552,272.17955,67.73376)"/>
<path transform="matrix(1,0,0,-1,15.12,27.787003)" stroke-width="1.19553" stroke-linecap="butt" stroke-miterlimit="10" stroke-linejoin="miter" fill="none" stroke="#000000" d="M 339.82756 -14.26784 C 345.3652 -34.93468 345.3652 -48.46642 341.3126 -63.59023 "/>
<path transform="matrix(-.25879,.96593,.96593,.25879,356.4326,91.37723)" d="M 5.73854 0 C 4.0382 .31879 1.27522 1.27522 -.6376 2.39105 L -.6376 -2.39105 C 1.27522 -1.27522 4.0382 -.31879 5.73854 0 "/>
<use xlink:href="#font_2_2" transform="matrix(11.9552,0,0,-11.9552,307.6264,67.05231)"/>
<use xlink:href="#font_4_1" transform="matrix(11.9552,0,0,-11.9552,315.0436,67.73376)"/>
<use xlink:href="#font_0_2" transform="matrix(11.9552,0,0,-11.9552,318.80659,67.14795)"/>
<use xlink:href="#font_3_1" transform="matrix(7.9701,0,0,-7.9701,325.87156,66.527)"/>
<use xlink:href="#font_5_1" transform="matrix(11.9552,0,0,-11.9552,335.1067,67.7218)"/>
<use xlink:href="#font_0_1" transform="matrix(11.9552,0,0,-11.9552,337.45933,64.82864)"/>
<use xlink:href="#font_3_1" transform="matrix(7.9701,0,0,-7.9701,345.27458,66.527)"/>
<use xlink:href="#font_4_2" transform="matrix(11.9552,0,0,-11.9552,353.74357,67.73376)"/>
<path transform="matrix(1,0,0,-1,15.12,27.787003)" stroke-width=".69739" stroke-linecap="butt" stroke-dasharray="2.98883,2.98883" stroke-miterlimit="10" stroke-linejoin="miter" fill="none" stroke="#9e9e9e" d="M -14.77115 -51.02432 L 350.7761 -51.02432 "/>
<path transform="matrix(1,0,0,-1,15.12,27.787003)" d="M -11.33873 -47.59172 L 60.724695 -47.59172 L 60.724695 -17.593441 L -11.33873 -17.593441 Z " fill="#fffcdf"/>
<symbol id="font_7_3">
<path d="M .20400001 .661 C .19500001 .683 .19200002 .683 .16900002 .683 L 0 .683 L 0 .652 L .024000004 .652 C .10100001 .652 .103 .64100006 .103 .605 L .103 .105000007 C .103 .078 .103 .031000002 0 .031000002 L 0 0 C .035000005 .001 .08400001 .003 .11700001 .003 C .15 .003 .19900002 .001 .23400003 0 L .23400003 .031000002 C .13100001 .031000002 .13100001 .078 .13100001 .105000007 L .13100001 .64400008 L .13200002 .64400008 L .37300004 .022000002 C .37800003 .009000001 .38300003 0 .393 0 C .404 0 .40700004 .008 .411 .019000002 L .657 .652 L .65800008 .652 L .65800008 .078 C .65800008 .042000005 .656 .031000002 .57900008 .031000002 L .555 .031000002 L .555 0 C .592 .003 .66 .003 .69900009 .003 C .73800006 .003 .80500009 .003 .84200009 0 L .84200009 .031000002 L .818 .031000002 C .74100008 .031000002 .739 .042000005 .739 .078 L .739 .605 C .739 .64100006 .74100008 .652 .818 .652 L .84200009 .652 L .84200009 .683 L .67300006 .683 C .647 .683 .647 .68200007 .64000007 .66400006 L .42100004 .101 L .20400001 .661 Z "/>
</symbol>
<symbol id="font_7_4">
<path d="M .291 .087000008 C .29500003 .047000003 .32200004 .005000001 .36900003 .005000001 C .39000003 .005000001 .45100004 .019000002 .45100004 .1 L .45100004 .15600002 L .42600004 .15600002 L .42600004 .1 C .42600004 .042000005 .40100003 .036000004 .39000003 .036000004 C .35700003 .036000004 .35300002 .081 .35300002 .086 L .35300002 .286 C .35300002 .328 .35300002 .367 .31700004 .404 C .27800004 .44300003 .22800002 .45900003 .18 .45900003 C .098 .45900003 .029 .41200004 .029 .34600003 C .029 .316 .049000004 .29900003 .075 .29900003 C .10300001 .29900003 .121 .31900005 .121 .34500004 C .121 .35700003 .116000007 .39000003 .07 .39100004 C .09700001 .42600004 .146 .43700005 .178 .43700005 C .22700003 .43700005 .284 .39800004 .284 .30900003 L .284 .272 C .23300001 .26900003 .16300002 .26600004 .1 .23600002 C .024999999 .20200002 0 .15000002 0 .106000009 C 0 .025000003 .09700001 0 .16 0 C .22600001 0 .272 .040000004 .291 .087000008 M .284 .25100003 L .284 .15100001 C .284 .056 .21200001 .022000002 .167 .022000002 C .11800001 .022000002 .077 .057000005 .077 .107 C .077 .16200002 .11900001 .24500002 .284 .25100003 Z "/>
</symbol>
<symbol id="font_7_f">
<path d="M .13900002 .33200003 L .13900002 .44200004 L 0 .43100003 L 0 .4 C .07000001 .4 .07800001 .393 .07800001 .344 L .07800001 .076000008 C .07800001 .031000002 .067 .031000002 0 .031000002 L 0 0 C .039 .001 .08600001 .003 .11400001 .003 C .15400002 .003 .20100002 .003 .24100003 0 L .24100003 .031000002 L .22000002 .031000002 C .14600002 .031000002 .14400001 .042000005 .14400001 .078 L .14400001 .23200001 C .14400001 .33100004 .18600002 .42000003 .26200003 .42000003 C .26900003 .42000003 .27100004 .42000003 .27300004 .41900004 C .27 .418 .25000004 .40600003 .25000004 .38000003 C .25000004 .35200004 .27100004 .337 .293 .337 C .31100003 .337 .33600004 .349 .33600004 .381 C .33600004 .41300003 .305 .44200004 .26200003 .44200004 C .18900001 .44200004 .15300001 .37500004 .13900002 .33200003 Z "/>
</symbol>
<symbol id="font_7_b">
<path d="M .07800001 .076000008 C .07800001 .031000002 .067 .031000002 0 .031000002 L 0 0 C .033000005 .001 .08 .003 .10900001 .003 C .13900002 .003 .17900002 .002 .21900001 0 L .21900001 .031000002 C .15200001 .031000002 .14100002 .031000002 .14100002 .076000008 L .14100002 .179 L .20500002 .23400001 C .282 .128 .32400004 .072000008 .32400004 .054 C .32400004 .035 .307 .031000002 .28800003 .031000002 L .28800003 0 C .316 .001 .37500004 .003 .39600004 .003 C .425 .003 .45400004 .002 .48300005 0 L .48300005 .031000002 C .44600005 .031000002 .42400003 .031000002 .38600005 .08400001 L .259 .263 C .25800003 .26500003 .25300003 .27100004 .25300003 .27400003 C .25300003 .27800004 .32400004 .33800004 .33400003 .34600003 C .397 .397 .439 .39900003 .46000005 .4 L .46000005 .43100003 C .43100003 .42800004 .418 .42800004 .39000003 .42800004 C .35400004 .42800004 .29200004 .43 .27800004 .43100003 L .27800004 .4 C .29700003 .39900003 .307 .388 .307 .37500004 C .307 .35500003 .293 .34300003 .28500004 .33600004 L .14400001 .21400002 L .14400001 .694 L 0 .683 L 0 .652 C .07000001 .652 .07800001 .64500007 .07800001 .596 L .07800001 .076000008 Z "/>
</symbol>
<symbol id="font_7_e">
<path d="M .44300003 .22500003 C .44300003 .35300002 .34300003 .45900003 .222 .45900003 C .097 .45900003 0 .35000003 0 .22500003 C 0 .096 .104 0 .22100002 0 C .342 0 .44300003 .098000008 .44300003 .22500003 M .222 .025000003 C .17900002 .025000003 .135 .046 .10800001 .092 C .083000008 .136 .083000008 .19700001 .083000008 .23300003 C .083000008 .272 .083000008 .32600004 .10700001 .37000004 C .134 .41600005 .18100001 .43700005 .22100002 .43700005 C .26500003 .43700005 .30800004 .41500003 .33400003 .37200005 C .36 .32900004 .36 .27100004 .36 .23300003 C .36 .19700001 .36 .143 .33800004 .09900001 C .316 .054 .272 .025000003 .222 .025000003 Z "/>
</symbol>
<symbol id="font_7_13">
<path d="M .397 .344 C .40600003 .367 .42300005 .41000004 .48900003 .411 L .48900003 .44200004 C .46600003 .44000004 .43700005 .43900005 .41400004 .43900005 C .39000003 .43900005 .344 .441 .32700003 .44200004 L .32700003 .411 C .36400003 .41000004 .37500004 .38700003 .37500004 .36800004 C .37500004 .35900004 .37300004 .35500003 .36900003 .344 L .26700003 .089 L .155 .36800004 C .14900002 .381 .14900002 .38300003 .14900002 .38500003 C .14900002 .411 .18800003 .411 .206 .411 L .206 .44200004 C .176 .441 .12000001 .43900005 .097 .43900005 C .07 .43900005 .030000002 .44000004 0 .44200004 L 0 .411 C .063 .411 .067 .40500004 .080000009 .374 L .224 .019000002 C .23000002 .005000001 .23200003 0 .245 0 C .25800003 0 .26200003 .009000001 .26600004 .019000002 L .397 .344 Z "/>
</symbol>
<symbol id="font_7_6">
<path d="M .083000008 .22900002 C .083000008 .39200003 .16500002 .43400003 .218 .43400003 C .227 .43400003 .29 .43300004 .32500003 .397 C .284 .39400003 .278 .36400003 .278 .351 C .278 .32500003 .296 .305 .324 .305 C .35 .305 .37 .32200004 .37 .35200004 C .37 .42000003 .294 .45900003 .21700001 .45900003 C .092 .45900003 0 .351 0 .22700002 C 0 .09900001 .099 0 .215 0 C .349 0 .381 .120000008 .381 .13000001 C .381 .14000002 .37100003 .14000002 .368 .14000002 C .359 .14000002 .35700003 .136 .35500003 .13000001 C .326 .037 .261 .025000003 .224 .025000003 C .171 .025000003 .083000008 .068 .083000008 .22900002 Z "/>
</symbol>
<symbol id="font_7_9">
<path d="M .07800001 .076000008 C .07800001 .031000002 .067 .031000002 0 .031000002 L 0 0 C .035 .001 .08600001 .003 .113000009 .003 C .139 .003 .191 .001 .225 0 L .225 .031000002 C .158 .031000002 .147 .031000002 .147 .076000008 L .147 .26000003 C .147 .36400003 .218 .42000003 .282 .42000003 C .345 .42000003 .356 .36600004 .356 .30900003 L .356 .076000008 C .356 .031000002 .345 .031000002 .278 .031000002 L .278 0 C .31300003 .001 .36400003 .003 .391 .003 C .41700004 .003 .46900005 .001 .503 0 L .503 .031000002 C .451 .031000002 .42600004 .031000002 .425 .061000006 L .425 .252 C .425 .33800004 .425 .36900003 .39400003 .40500004 C .38000003 .42200003 .347 .44200004 .289 .44200004 C .20500002 .44200004 .161 .38200004 .14400001 .344 L .14400001 .694 L 0 .683 L 0 .652 C .07000001 .652 .07800001 .64500007 .07800001 .596 L .07800001 .076000008 Z "/>
</symbol>
<symbol id="font_7_a">
<path d="M .144 .44200004 L .0040000008 .43100003 L .0040000008 .4 C .069000009 .4 .07800001 .39400003 .07800001 .34500004 L .07800001 .076000008 C .07800001 .031000002 .067 .031000002 0 .031000002 L 0 0 C .032000007 .001 .086 .003 .11000001 .003 C .14500001 .003 .18 .001 .21400002 0 L .21400002 .031000002 C .148 .031000002 .144 .036000004 .144 .075 L .144 .44200004 M .148 .61600008 C .148 .648 .123 .669 .095000009 .669 C .064 .669 .042000005 .642 .042000005 .61600008 C .042000005 .58900007 .064 .563 .095000009 .563 C .123 .563 .148 .58400008 .148 .61600008 Z "/>
</symbol>
<symbol id="font_7_d">
<path d="M .07800001 .344 L .07800001 .076000008 C .07800001 .031000002 .067 .031000002 0 .031000002 L 0 0 C .035 .001 .08600001 .003 .113000009 .003 C .139 .003 .191 .001 .225 0 L .225 .031000002 C .158 .031000002 .147 .031000002 .147 .076000008 L .147 .26000003 C .147 .36400003 .218 .42000003 .282 .42000003 C .345 .42000003 .356 .36600004 .356 .30900003 L .356 .076000008 C .356 .031000002 .345 .031000002 .278 .031000002 L .278 0 C .31300003 .001 .36400003 .003 .391 .003 C .41700004 .003 .46900005 .001 .503 0 L .503 .031000002 C .451 .031000002 .42600004 .031000002 .425 .061000006 L .425 .252 C .425 .33800004 .425 .36900003 .39400003 .40500004 C .38000003 .42200003 .347 .44200004 .289 .44200004 C .216 .44200004 .169 .39900003 .141 .337 L .141 .44200004 L 0 .43100003 L 0 .4 C .07000001 .4 .07800001 .393 .07800001 .344 Z "/>
</symbol>
<symbol id="font_7_1">
<path d="M .23200003 .00999999 C .23200003 .012999982 .23200003 .014999986 .215 .03199999 C .09 .15799999 .058 .347 .058 .5 C .058 .674 .096 .84800007 .21900001 .97300007 C .23200003 .985 .23200003 .98700007 .23200003 .99 C .23200003 .99700006 .22800002 1 .222 1 C .21200001 1 .12200001 .93200007 .06299999 .805 C .012000002 .69500008 0 .584 0 .5 C 0 .422 .011 .301 .066 .188 C .126 .065 .21200001 0 .222 0 C .22800002 0 .23200003 .0029999912 .23200003 .00999999 Z "/>
</symbol>
<symbol id="font_7_7">
<path d="M .34600003 .06600001 L .34600003 0 L .493 .011000001 L .493 .042000005 C .423 .042000005 .41500003 .049000004 .41500003 .098000008 L .41500003 .705 L .271 .694 L .271 .663 C .34100003 .663 .349 .656 .349 .607 L .349 .39100004 C .32 .42700003 .277 .45300005 .22299999 .45300005 C .10500001 .45300005 0 .35500003 0 .22600001 C 0 .09900001 .098 0 .21200001 0 C .276 0 .321 .034 .34600003 .06600001 M .34600003 .33400003 L .34600003 .12900001 C .34600003 .111 .34600003 .109000008 .335 .092 C .305 .044 .26 .022000002 .21700001 .022000002 C .17200002 .022000002 .136 .048 .11200001 .086 C .086 .127 .083000008 .18400002 .083000008 .22500003 C .083000008 .26200003 .085 .32200004 .114 .367 C .13500002 .39800004 .17300001 .43100003 .227 .43100003 C .262 .43100003 .30400003 .41600005 .335 .37100003 C .34600003 .35400004 .34600003 .35200004 .34600003 .33400003 Z "/>
</symbol>
<symbol id="font_7_8">
<path d="M .08400001 .263 C .09 .41200004 .17400001 .43700005 .20800002 .43700005 C .31100003 .43700005 .321 .30200003 .321 .263 L .08400001 .263 M .083000008 .24200002 L .36200003 .24200002 C .38400004 .24200002 .38700003 .24200002 .38700003 .263 C .38700003 .36200003 .33300004 .45900003 .20800002 .45900003 C .09200001 .45900003 0 .35600005 0 .23100002 C 0 .097 .105000007 0 .22000002 0 C .342 0 .38700003 .111 .38700003 .13000001 C .38700003 .14000002 .379 .14200002 .374 .14200002 C .365 .14200002 .36300005 .136 .36100004 .128 C .326 .025000003 .236 .025000003 .22600001 .025000003 C .17600002 .025000003 .136 .055000005 .113000009 .092 C .083000008 .14000002 .083000008 .20600002 .083000008 .24200002 Z "/>
</symbol>
<symbol id="font_7_10">
<path d="M .17500001 .20500002 C .197 .20100002 .279 .18500002 .279 .113000009 C .279 .062000004 .24400002 .022000002 .16600001 .022000002 C .082 .022000002 .046000005 .079 .027000003 .16400002 C .024000004 .17700002 .023000002 .18100001 .013000004 .18100001 C 0 .18100001 0 .17400001 0 .15600002 L 0 .024 C 0 .0070000009 0 0 .011000004 0 C .016000003 0 .017 .0010000002 .036000007 .020000002 C .038000004 .022000002 .038000004 .024 .056 .043 C .1 .0010000002 .14500001 0 .16600001 0 C .28100003 0 .32700003 .067 .32700003 .13900002 C .32700003 .19200002 .29700003 .22200002 .28500004 .23400001 C .25200004 .26600004 .213 .27400003 .171 .28200004 C .115 .293 .048 .30600003 .048 .36400003 C .048 .39900003 .07400001 .44000004 .16 .44000004 C .27 .44000004 .27500005 .35000003 .277 .31900005 C .27800004 .31000004 .28700004 .31000004 .28900004 .31000004 C .30200003 .31000004 .30200003 .31500004 .30200003 .33400003 L .30200003 .43500004 C .30200003 .45200003 .30200003 .45900003 .291 .45900003 C .286 .45900003 .284 .45900003 .27100004 .44700004 C .26800005 .44300003 .25800003 .43400003 .254 .43100003 C .21600002 .45900003 .17500001 .45900003 .16 .45900003 C .038000004 .45900003 0 .39200003 0 .33600004 C 0 .30100004 .016000003 .27300004 .043000007 .25100003 C .075 .22500003 .10300001 .21900001 .17500001 .20500002 Z "/>
</symbol>
<symbol id="font_7_11">
<path d="M .15400002 .411 L .29700003 .411 L .29700003 .44200004 L .15400002 .44200004 L .15400002 .626 L .12900001 .626 C .12799999 .544 .098000008 .43700005 0 .43300004 L 0 .411 L .085 .411 L .085 .135 C .085 .012000001 .178 0 .21400002 0 C .28500004 0 .31300003 .071 .31300003 .135 L .31300003 .19200002 L .28800003 .19200002 L .28800003 .13700001 C .28800003 .063 .25800003 .025000003 .22100002 .025000003 C .15400002 .025000003 .15400002 .116000007 .15400002 .13300002 L .15400002 .411 Z "/>
</symbol>
<symbol id="font_7_2">
<path d="M .232 .5 C .232 .578 .22100002 .699 .16600001 .81200006 C .106 .93500009 .020000004 1 .009999998 1 C .0040000008 1 0 .99600008 0 .99 C 0 .98700007 0 .985 .019000002 .967 C .117000009 .86800006 .174 .709 .174 .5 C .174 .329 .137 .153 .012999997 .026999996 C 0 .014999986 0 .012999982 0 .00999999 C 0 .003999993 .0040000008 0 .009999998 0 C .020000004 0 .11000001 .06799999 .169 .195 C .22 .305 .232 .416 .232 .5 Z "/>
</symbol>
<use xlink:href="#font_7_3" transform="matrix(9.9626,0,0,-9.9626,7.4706165,55.619005)"/>
<use xlink:href="#font_7_4" transform="matrix(9.9626,0,0,-9.9626,16.656134,55.728593)"/>
<use xlink:href="#font_7_f" transform="matrix(9.9626,0,0,-9.9626,21.49796,55.619005)"/>
<use xlink:href="#font_7_b" transform="matrix(9.9626,0,0,-9.9626,25.403298,55.619005)"/>
<use xlink:href="#font_7_e" transform="matrix(9.9626,0,0,-9.9626,30.384596,55.728593)"/>
<use xlink:href="#font_7_13" transform="matrix(9.9626,0,0,-9.9626,34.997278,55.728593)"/>
<use xlink:href="#font_7_6" transform="matrix(9.9626,0,0,-9.9626,43.734479,55.728593)"/>
<use xlink:href="#font_7_9" transform="matrix(9.9626,0,0,-9.9626,47.85899,55.619005)"/>
<use xlink:href="#font_7_4" transform="matrix(9.9626,0,0,-9.9626,53.497827,55.728593)"/>
<use xlink:href="#font_7_a" transform="matrix(9.9626,0,0,-9.9626,58.38946,55.619005)"/>
<use xlink:href="#font_7_d" transform="matrix(9.9626,0,0,-9.9626,61.1491,55.619005)"/>
<use xlink:href="#font_7_1" transform="matrix(9.9626,0,0,-9.9626,8.088298,72.05765)"/>
<use xlink:href="#font_7_9" transform="matrix(9.9626,0,0,-9.9626,11.296254,69.567)"/>
<use xlink:href="#font_7_a" transform="matrix(9.9626,0,0,-9.9626,16.845423,69.567)"/>
<use xlink:href="#font_7_7" transform="matrix(9.9626,0,0,-9.9626,19.624989,69.67659)"/>
<use xlink:href="#font_7_7" transform="matrix(9.9626,0,0,-9.9626,25.164195,69.67659)"/>
<use xlink:href="#font_7_8" transform="matrix(9.9626,0,0,-9.9626,30.643626,69.67659)"/>
<use xlink:href="#font_7_d" transform="matrix(9.9626,0,0,-9.9626,35.10687,69.567)"/>
<use xlink:href="#font_7_10" transform="matrix(9.9626,0,0,-9.9626,43.973588,69.67659)"/>
<use xlink:href="#font_7_11" transform="matrix(9.9626,0,0,-9.9626,47.759378,69.67659)"/>
<use xlink:href="#font_7_4" transform="matrix(9.9626,0,0,-9.9626,51.863969,69.67659)"/>
<use xlink:href="#font_7_11" transform="matrix(9.9626,0,0,-9.9626,56.616128,69.67659)"/>
<use xlink:href="#font_7_8" transform="matrix(9.9626,0,0,-9.9626,60.58124,69.67659)"/>
<use xlink:href="#font_7_10" transform="matrix(9.9626,0,0,-9.9626,65.05445,69.67659)"/>
<use xlink:href="#font_7_2" transform="matrix(9.9626,0,0,-9.9626,69.21882,72.05765)"/>
<path transform="matrix(1,0,0,-1,15.12,27.787003)" d="M -11.33873 -84.34409 L 57.431428 -84.34409 L 57.431428 -54.456525 L -11.33873 -54.456525 Z " fill="#fffcdf"/>
<symbol id="font_7_12">
<path d="M .35900004 .09 L .35900004 0 L .503 .011000001 L .503 .042000005 C .43300004 .042000005 .425 .049000004 .425 .098000008 L .425 .45300005 L .278 .44200004 L .278 .411 C .34800003 .411 .356 .404 .356 .35500003 L .356 .17700002 C .356 .09 .308 .022000002 .23500002 .022000002 C .15100001 .022000002 .147 .069000009 .147 .12100001 L .147 .45300005 L 0 .44200004 L 0 .411 C .07800001 .411 .07800001 .40800003 .07800001 .31900005 L .07800001 .16900002 C .07800001 .091000009 .07800001 0 .23000002 0 C .286 0 .33 .028 .35900004 .09 Z "/>
</symbol>
<symbol id="font_7_c">
<path d="M .07800001 .344 L .07800001 .076000008 C .07800001 .031000002 .067 .031000002 0 .031000002 L 0 0 C .035 .001 .08600001 .003 .113000009 .003 C .139 .003 .191 .001 .225 0 L .225 .031000002 C .158 .031000002 .147 .031000002 .147 .076000008 L .147 .26000003 C .147 .36400003 .218 .42000003 .282 .42000003 C .345 .42000003 .356 .36600004 .356 .30900003 L .356 .076000008 C .356 .031000002 .345 .031000002 .278 .031000002 L .278 0 C .31300003 .001 .36400003 .003 .391 .003 C .41700004 .003 .46900005 .001 .503 0 L .503 .031000002 C .43600003 .031000002 .425 .031000002 .425 .076000008 L .425 .26000003 C .425 .36400003 .496 .42000003 .56 .42000003 C .623 .42000003 .634 .36600004 .634 .30900003 L .634 .076000008 C .634 .031000002 .623 .031000002 .556 .031000002 L .556 0 C .591 .001 .642 .003 .669 .003 C .69500008 .003 .74700006 .001 .781 0 L .781 .031000002 C .72900006 .031000002 .70400008 .031000002 .703 .061000006 L .703 .252 C .703 .33800004 .703 .36900003 .67200008 .40500004 C .65800008 .42200003 .625 .44200004 .56700006 .44200004 C .48300005 .44200004 .439 .38200004 .42200003 .344 C .40800003 .43100003 .33400003 .44200004 .289 .44200004 C .216 .44200004 .169 .39900003 .141 .337 L .141 .44200004 L 0 .43100003 L 0 .4 C .07000001 .4 .07800001 .393 .07800001 .344 Z "/>
</symbol>
<symbol id="font_7_5">
<path d="M .14400001 .388 L .14400001 .705 L 0 .694 L 0 .663 C .07000001 .663 .07800001 .656 .07800001 .607 L .07800001 .011000001 L .103000018 .011000001 C .104 .012000001 .112 .026 .13900002 .07300001 C .15400002 .05 .19600001 0 .27 0 C .38900004 0 .49300004 .098000008 .49300004 .22700002 C .49300004 .35400004 .395 .45300005 .28100003 .45300005 C .20300001 .45300005 .16000001 .40600003 .14400001 .388 M .14700002 .12500002 L .14700002 .33100004 C .14700002 .35000003 .14700002 .351 .158 .367 C .19700001 .42300005 .252 .43100003 .27600003 .43100003 C .321 .43100003 .35700003 .40500004 .381 .367 C .40700004 .32600004 .41000004 .26900003 .41000004 .22800002 C .41000004 .19100002 .40800003 .13100001 .379 .086 C .358 .055000005 .32000003 .022000002 .266 .022000002 C .22100002 .022000002 .18500002 .046 .16100002 .083000008 C .14700002 .104 .14700002 .107 .14700002 .12500002 Z "/>
</symbol>
<use xlink:href="#font_7_3" transform="matrix(9.9626,0,0,-9.9626,7.4706165,92.371)"/>
<use xlink:href="#font_7_8" transform="matrix(9.9626,0,0,-9.9626,16.516659,92.48059)"/>
<use xlink:href="#font_7_4" transform="matrix(9.9626,0,0,-9.9626,21.079529,92.48059)"/>
<use xlink:href="#font_7_10" transform="matrix(9.9626,0,0,-9.9626,25.971167,92.48059)"/>
<use xlink:href="#font_7_12" transform="matrix(9.9626,0,0,-9.9626,29.886469,92.48059)"/>
<use xlink:href="#font_7_f" transform="matrix(9.9626,0,0,-9.9626,35.385828,92.371)"/>
<use xlink:href="#font_7_8" transform="matrix(9.9626,0,0,-9.9626,39.291166,92.48059)"/>
<use xlink:href="#font_7_c" transform="matrix(9.9626,0,0,-9.9626,43.754407,92.371)"/>
<use xlink:href="#font_7_8" transform="matrix(9.9626,0,0,-9.9626,52.013406,92.48059)"/>
<use xlink:href="#font_7_d" transform="matrix(9.9626,0,0,-9.9626,56.476648,92.371)"/>
<use xlink:href="#font_7_11" transform="matrix(9.9626,0,0,-9.9626,61.607389,92.48059)"/>
<use xlink:href="#font_7_10" transform="matrix(9.9626,0,0,-9.9626,65.622318,92.48059)"/>
<use xlink:href="#font_7_1" transform="matrix(9.9626,0,0,-9.9626,8.088298,108.80965)"/>
<use xlink:href="#font_7_e" transform="matrix(9.9626,0,0,-9.9626,11.256404,106.42859)"/>
<use xlink:href="#font_7_5" transform="matrix(9.9626,0,0,-9.9626,16.237706,106.42859)"/>
<use xlink:href="#font_7_10" transform="matrix(9.9626,0,0,-9.9626,21.826724,106.42859)"/>
<use xlink:href="#font_7_8" transform="matrix(9.9626,0,0,-9.9626,25.702176,106.42859)"/>
<use xlink:href="#font_7_f" transform="matrix(9.9626,0,0,-9.9626,30.12557,106.319)"/>
<use xlink:href="#font_7_13" transform="matrix(9.9626,0,0,-9.9626,33.941247,106.42859)"/>
<use xlink:href="#font_7_8" transform="matrix(9.9626,0,0,-9.9626,39.01221,106.42859)"/>
<use xlink:href="#font_7_7" transform="matrix(9.9626,0,0,-9.9626,43.49538,106.42859)"/>
<use xlink:href="#font_7_2" transform="matrix(9.9626,0,0,-9.9626,49.263727,108.80965)"/>
</g>
</svg>
