<svg version="1.1" viewBox="0.0 0.0 960.0 540.0" fill="none" stroke="none" stroke-linecap="square" stroke-miterlimit="10" xmlns:xlink="http://www.w3.org/1999/xlink" xmlns="http://www.w3.org/2000/svg"><clipPath id="gcb9a0b074_1_0.0"><path d="m0 0l960.0 0l0 540.0l-960.0 0l0 -540.0z" clip-rule="nonzero"/></clipPath><g clip-path="url(#gcb9a0b074_1_0.0)"><path fill="#f46524" d="m0 0l960.0 0l0 540.0l-960.0 0z" fill-rule="evenodd"/><path fill="#000000" fill-opacity="0.0" d="m260.12854 43.637794l655.5591 0" fill-rule="evenodd"/><path stroke="#ffffff" stroke-width="4.0" stroke-linejoin="round" stroke-linecap="butt" d="m260.12854 43.637794l655.5591 0" fill-rule="evenodd"/><path fill="#000000" fill-opacity="0.0" d="m260.12854 497.6378l655.5591 0" fill-rule="evenodd"/><path stroke="#ffffff" stroke-width="2.0" stroke-linejoin="round" stroke-linecap="butt" d="m260.12854 497.6378l655.5591 0" fill-rule="evenodd"/><path fill="#000000" fill-opacity="0.0" d="m44.640232 43.637794l19.244091 0" fill-rule="evenodd"/><path stroke="#ffffff" stroke-width="2.0" stroke-linejoin="round" stroke-linecap="butt" d="m44.640232 43.637794l19.244091 0" fill-rule="evenodd"/><path fill="#000000" fill-opacity="0.0" d="m249.0 66.16535l664.7244 0l0 161.88977l-664.7244 0z" fill-rule="evenodd"/><path fill="#ffffff" d="m276.40625 82.96348l0 2.609375l-7.421875 0l0 20.3125l-3.09375 0l0 -20.3125l-7.4375 0l0 -2.609375l17.953125 0zm5.2706604 6.71875l0 10.328125q0 1.84375 0.84375 2.859375q0.859375 1.0 2.5625 1.0q1.25 0 2.34375 -0.59375q1.109375 -0.59375 2.046875 -1.640625l0 -11.953125l2.84375 0l0 16.203125l-1.6875 0q-0.609375 0 -0.78125 -0.59375l-0.21875 -1.75q-1.046875 1.171875 -2.359375 1.890625q-1.3125 0.703125 -3.015625 0.703125q-1.328125 0 -2.34375 -0.4375q-1.015625 -0.4375 -1.703125 -1.234375q-0.6875 -0.796875 -1.03125 -1.9375q-0.34375 -1.140625 -0.34375 -2.515625l0 -10.328125l2.84375 0zm20.245148 16.453125q-1.921875 0 -2.953125 -1.0625q-1.03125 -1.078125 -1.03125 -3.09375l0 -9.921875l-1.953125 0q-0.25 0 -0.4375 -0.140625q-0.171875 -0.15625 -0.171875 -0.484375l0 -1.125l2.65625 -0.34375l0.65625 -5.0q0.03125 -0.25 0.203125 -0.390625q0.1875 -0.15625 0.453125 -0.15625l1.4375 0l0 5.578125l4.640625 0l0 2.0625l-4.640625 0l0 9.734375q0 1.015625 0.5 1.515625q0.5 0.5 1.28125 0.5q0.453125 0 0.765625 -0.109375q0.328125 -0.125 0.5625 -0.265625q0.25 -0.15625 0.421875 -0.265625q0.171875 -0.125 0.296875 -0.125q0.21875 0 0.40625 0.265625l0.828125 1.359375q-0.734375 0.6875 -1.78125 1.078125q-1.03125 0.390625 -2.140625 0.390625zm13.57666 -16.71875q1.78125 0 3.203125 0.59375q1.4375 0.59375 2.4375 1.6875q1.0 1.078125 1.53125 2.625q0.546875 1.546875 0.546875 3.453125q0 1.921875 -0.546875 3.453125q-0.53125 1.53125 -1.53125 2.625q-1.0 1.09375 -2.4375 1.671875q-1.421875 0.578125 -3.203125 0.578125q-1.765625 0 -3.203125 -0.578125q-1.4375 -0.578125 -2.453125 -1.671875q-1.0 -1.09375 -1.546875 -2.625q-0.53125 -1.53125 -0.53125 -3.453125q0 -1.90625 0.53125 -3.453125q0.546875 -1.546875 1.546875 -2.625q1.015625 -1.09375 2.453125 -1.6875q1.4375 -0.59375 3.203125 -0.59375zm0 14.46875q2.40625 0 3.578125 -1.609375q1.1875 -1.609375 1.1875 -4.484375q0 -2.890625 -1.1875 -4.5q-1.171875 -1.625 -3.578125 -1.625q-1.203125 0 -2.109375 0.421875q-0.890625 0.40625 -1.5 1.1875q-0.59375 0.78125 -0.890625 1.9375q-0.296875 1.140625 -0.296875 2.578125q0 1.4375 0.296875 2.578125q0.296875 1.125 0.890625 1.90625q0.609375 0.78125 1.5 1.203125q0.90625 0.40625 2.109375 0.40625zm11.245178 2.0l0 -16.203125l1.625 0q0.46875 0 0.640625 0.171875q0.171875 0.171875 0.234375 0.609375l0.203125 2.53125q0.828125 -1.703125 2.046875 -2.65625q1.21875 -0.953125 2.875 -0.953125q0.671875 0 1.21875 0.15625q0.546875 0.15625 1.0 0.421875l-0.359375 2.125q-0.109375 0.40625 -0.5 0.40625q-0.21875 0 -0.6875 -0.15625q-0.46875 -0.15625 -1.296875 -0.15625q-1.484375 0 -2.484375 0.875q-1.0 0.859375 -1.671875 2.515625l0 10.3125l-2.84375 0zm16.052246 -16.203125l0 16.203125l-2.84375 0l0 -16.203125l2.84375 0zm0.640625 -5.09375q0 0.421875 -0.171875 0.78125q-0.15625 0.359375 -0.4375 0.640625q-0.28125 0.28125 -0.65625 0.4375q-0.359375 0.15625 -0.78125 0.15625q-0.40625 0 -0.78125 -0.15625q-0.359375 -0.15625 -0.640625 -0.4375q-0.265625 -0.28125 -0.4375 -0.640625q-0.15625 -0.359375 -0.15625 -0.78125q0 -0.421875 0.15625 -0.796875q0.171875 -0.375 0.4375 -0.65625q0.28125 -0.28125 0.640625 -0.4375q0.375 -0.15625 0.78125 -0.15625q0.421875 0 0.78125 0.15625q0.375 0.15625 0.65625 0.4375q0.28125 0.28125 0.4375 0.65625q0.171875 0.375 0.171875 0.796875zm16.285767 21.296875l-1.265625 0q-0.40625 0 -0.671875 -0.125q-0.25 -0.125 -0.328125 -0.546875l-0.328125 -1.5q-0.625 0.578125 -1.234375 1.03125q-0.609375 0.453125 -1.28125 0.765625q-0.671875 0.3125 -1.4375 0.46875q-0.765625 0.15625 -1.6875 0.15625q-0.9375 0 -1.765625 -0.25q-0.828125 -0.265625 -1.4375 -0.796875q-0.609375 -0.53125 -0.96875 -1.328125q-0.359375 -0.8125 -0.359375 -1.921875q0 -0.96875 0.53125 -1.84375q0.53125 -0.890625 1.703125 -1.578125q1.171875 -0.6875 3.078125 -1.125q1.90625 -0.453125 4.65625 -0.515625l0 -1.265625q0 -1.875 -0.8125 -2.84375q-0.796875 -0.96875 -2.390625 -0.96875q-1.03125 0 -1.75 0.265625q-0.703125 0.265625 -1.234375 0.59375q-0.515625 0.3125 -0.890625 0.578125q-0.375 0.265625 -0.75 0.265625q-0.28125 0 -0.5 -0.140625q-0.21875 -0.15625 -0.34375 -0.390625l-0.515625 -0.90625q1.34375 -1.296875 2.890625 -1.9375q1.5625 -0.640625 3.453125 -0.640625q1.359375 0 2.40625 0.453125q1.0625 0.453125 1.78125 1.25q0.71875 0.796875 1.078125 1.9375q0.375 1.125 0.375 2.484375l0 10.375zm-7.390625 -1.75q0.75 0 1.375 -0.140625q0.625 -0.15625 1.171875 -0.4375q0.5625 -0.28125 1.0625 -0.671875q0.5 -0.40625 0.984375 -0.921875l0 -3.375q-1.96875 0.0625 -3.34375 0.3125q-1.375 0.25 -2.25 0.65625q-0.859375 0.390625 -1.25 0.9375q-0.390625 0.546875 -0.390625 1.21875q0 0.640625 0.203125 1.109375q0.21875 0.453125 0.5625 0.75q0.359375 0.296875 0.828125 0.4375q0.484375 0.125 1.046875 0.125zm14.88031 -21.8125l0 23.5625l-2.84375 0l0 -23.5625l2.84375 0zm4.7388916 21.796875q0 -0.40625 0.15625 -0.765625q0.15625 -0.375 0.40625 -0.640625q0.265625 -0.28125 0.625 -0.4375q0.375 -0.171875 0.796875 -0.171875q0.421875 0 0.78125 0.171875q0.375 0.15625 0.640625 0.4375q0.28125 0.265625 0.421875 0.640625q0.15625 0.359375 0.15625 0.765625q0 0.4375 -0.15625 0.796875q-0.140625 0.359375 -0.421875 0.640625q-0.265625 0.265625 -0.640625 0.40625q-0.359375 0.15625 -0.78125 0.15625q-0.421875 0 -0.796875 -0.15625q-0.359375 -0.140625 -0.625 -0.40625q-0.25 -0.28125 -0.40625 -0.640625q-0.15625 -0.359375 -0.15625 -0.796875zm0 -12.0q0 -0.40625 0.15625 -0.765625q0.15625 -0.375 0.40625 -0.640625q0.265625 -0.28125 0.625 -0.4375q0.375 -0.171875 0.796875 -0.171875q0.421875 0 0.78125 0.171875q0.375 0.15625 0.640625 0.4375q0.28125 0.265625 0.421875 0.640625q0.15625 0.359375 0.15625 0.765625q0 0.4375 -0.15625 0.796875q-0.140625 0.359375 -0.421875 0.640625q-0.265625 0.265625 -0.640625 0.421875q-0.359375 0.140625 -0.78125 0.140625q-0.421875 0 -0.796875 -0.140625q-0.359375 -0.15625 -0.625 -0.421875q-0.25 -0.28125 -0.40625 -0.640625q-0.15625 -0.359375 -0.15625 -0.796875z" fill-rule="nonzero"/><path fill="#ffffff" d="m262.34375 169.48535l0 -41.640625l15.125 0q5.109375 0 8.953125 1.640625q3.84375 1.640625 6.421875 4.453125q2.578125 2.8125 3.859375 6.609375q1.296875 3.78125 1.296875 8.0625q0 4.75 -1.4375 8.59375q-1.4375 3.828125 -4.140625 6.5625q-2.6875 2.734375 -6.46875 4.234375q-3.78125 1.484375 -8.484375 1.484375l-15.125 0zm27.5 -20.875q0 -3.0 -0.828125 -5.515625q-0.8125 -2.53125 -2.390625 -4.34375q-1.578125 -1.8125 -3.90625 -2.8125q-2.3125 -1.0 -5.25 -1.0l-7.03125 0l0 27.453125l7.03125 0q3.0 0 5.3125 -1.046875q2.3125 -1.0625 3.859375 -2.90625q1.5625 -1.859375 2.375 -4.375q0.828125 -2.53125 0.828125 -5.453125zm22.122864 21.46875q-2.234375 0 -4.171875 -0.734375q-1.9375 -0.734375 -3.34375 -2.046875q-1.40625 -1.328125 -2.203125 -3.078125q-0.78125 -1.765625 -0.78125 -3.890625q0 -2.171875 0.96875 -4.015625q0.96875 -1.84375 2.6875 -3.125q1.734375 -1.296875 4.140625 -2.03125q2.40625 -0.734375 5.28125 -0.734375q2.046875 0 4.015625 0.359375q1.96875 0.34375 3.5 0.984375l0 -1.75q0 -3.0625 -1.734375 -4.703125q-1.734375 -1.640625 -5.140625 -1.640625q-2.453125 0 -4.8125 0.890625q-2.34375 0.875 -4.796875 2.578125l-2.40625 -4.984375q5.921875 -3.9375 12.78125 -3.9375q6.625 0 10.296875 3.265625q3.671875 3.25 3.671875 9.40625l0 9.5625q0 1.234375 0.4375 1.765625q0.4375 0.515625 1.4375 0.578125l0 6.6875q-2.0 0.40625 -3.46875 0.40625q-2.21875 0 -3.421875 -0.984375q-1.203125 -1.0 -1.5 -2.640625l-0.171875 -1.703125q-2.0625 2.6875 -5.0 4.109375q-2.921875 1.40625 -6.265625 1.40625zm2.21875 -5.75q2.0 0 3.78125 -0.703125q1.796875 -0.703125 2.796875 -1.890625q1.296875 -0.984375 1.296875 -2.21875l0 -3.515625q-1.421875 -0.53125 -3.0625 -0.84375q-1.640625 -0.328125 -3.15625 -0.328125q-3.0625 0 -5.0 1.375q-1.921875 1.375 -1.921875 3.484375q0 2.0 1.515625 3.328125q1.53125 1.3125 3.75 1.3125zm41.48114 3.578125q-1.59375 0.703125 -3.875 1.40625q-2.28125 0.703125 -4.8125 0.703125q-1.640625 0 -3.078125 -0.421875q-1.4375 -0.40625 -2.53125 -1.3125q-1.078125 -0.90625 -1.71875 -2.34375q-0.640625 -1.4375 -0.640625 -3.484375l0 -17.65625l-4.046875 0l0 -6.046875l4.046875 0l0 -9.96875l7.859375 0l0 9.96875l6.453125 0l0 6.046875l-6.453125 0l0 15.015625q0 1.640625 0.84375 2.3125q0.859375 0.671875 2.078125 0.671875q1.234375 0 2.40625 -0.40625q1.171875 -0.421875 1.875 -0.703125l1.59375 6.21875zm12.492737 2.171875q-2.234375 0 -4.171875 -0.734375q-1.9375 -0.734375 -3.34375 -2.046875q-1.40625 -1.328125 -2.203125 -3.078125q-0.78125 -1.765625 -0.78125 -3.890625q0 -2.171875 0.96875 -4.015625q0.96875 -1.84375 2.6875 -3.125q1.734375 -1.296875 4.140625 -2.03125q2.40625 -0.734375 5.28125 -0.734375q2.046875 0 4.015625 0.359375q1.96875 0.34375 3.5 0.984375l0 -1.75q0 -3.0625 -1.734375 -4.703125q-1.734375 -1.640625 -5.140625 -1.640625q-2.453125 0 -4.8125 0.890625q-2.34375 0.875 -4.796875 2.578125l-2.40625 -4.984375q5.921875 -3.9375 12.78125 -3.9375q6.625 0 10.296875 3.265625q3.671875 3.25 3.671875 9.40625l0 9.5625q0 1.234375 0.4375 1.765625q0.4375 0.515625 1.4375 0.578125l0 6.6875q-2.0 0.40625 -3.46875 0.40625q-2.21875 0 -3.421875 -0.984375q-1.203125 -1.0 -1.5 -2.640625l-0.171875 -1.703125q-2.0625 2.6875 -5.0 4.109375q-2.921875 1.40625 -6.265625 1.40625zm2.21875 -5.75q2.0 0 3.78125 -0.703125q1.796875 -0.703125 2.796875 -1.890625q1.296875 -0.984375 1.296875 -2.21875l0 -3.515625q-1.421875 -0.53125 -3.0625 -0.84375q-1.640625 -0.328125 -3.15625 -0.328125q-3.0625 0 -5.0 1.375q-1.921875 1.375 -1.921875 3.484375q0 2.0 1.515625 3.328125q1.53125 1.3125 3.75 1.3125zm49.746185 -36.484375l7.15625 0l15.84375 41.640625l-8.328125 0l-3.875 -10.375l-14.546875 0l-3.8125 10.375l-8.328125 0l15.890625 -41.640625zm9.328125 25.5625l-5.75 -16.359375l-5.984375 16.359375l11.734375 0zm29.088837 16.671875q-3.859375 0 -7.5625 -1.234375q-3.6875 -1.234375 -6.328125 -3.53125l2.921875 -4.921875q2.8125 2.0 5.484375 3.03125q2.671875 1.015625 5.3125 1.015625q2.34375 0 3.6875 -0.875q1.359375 -0.875 1.359375 -2.53125q0 -1.640625 -1.59375 -2.390625q-1.578125 -0.765625 -5.15625 -1.765625q-2.984375 -0.828125 -5.109375 -1.578125q-2.109375 -0.765625 -3.40625 -1.734375q-1.28125 -0.96875 -1.875 -2.234375q-0.578125 -1.265625 -0.578125 -3.015625q0 -2.34375 0.90625 -4.21875q0.921875 -1.890625 2.5625 -3.203125q1.640625 -1.328125 3.828125 -2.03125q2.203125 -0.703125 4.78125 -0.703125q3.46875 0 6.484375 1.0q3.03125 1.0 5.546875 3.234375l-3.171875 4.75q-2.34375 -1.765625 -4.546875 -2.578125q-2.1875 -0.828125 -4.359375 -0.828125q-2.0 0 -3.359375 0.828125q-1.34375 0.8125 -1.34375 2.625q0 0.828125 0.328125 1.359375q0.328125 0.53125 1.03125 0.9375q0.703125 0.40625 1.84375 0.796875q1.140625 0.375 2.84375 0.78125q3.171875 0.828125 5.421875 1.65625q2.265625 0.8125 3.703125 1.875q1.4375 1.046875 2.109375 2.421875q0.671875 1.375 0.671875 3.3125q0 4.515625 -3.34375 7.140625q-3.34375 2.609375 -9.09375 2.609375zm29.15216 0q-3.859375 0 -7.5625 -1.234375q-3.6875 -1.234375 -6.328125 -3.53125l2.921875 -4.921875q2.8125 2.0 5.484375 3.03125q2.671875 1.015625 5.3125 1.015625q2.34375 0 3.6875 -0.875q1.359375 -0.875 1.359375 -2.53125q0 -1.640625 -1.59375 -2.390625q-1.578125 -0.765625 -5.15625 -1.765625q-2.984375 -0.828125 -5.109375 -1.578125q-2.109375 -0.765625 -3.40625 -1.734375q-1.28125 -0.96875 -1.875 -2.234375q-0.578125 -1.265625 -0.578125 -3.015625q0 -2.34375 0.90625 -4.21875q0.921875 -1.890625 2.5625 -3.203125q1.640625 -1.328125 3.828125 -2.03125q2.203125 -0.703125 4.78125 -0.703125q3.46875 0 6.484375 1.0q3.03125 1.0 5.546875 3.234375l-3.171875 4.75q-2.34375 -1.765625 -4.546875 -2.578125q-2.1875 -0.828125 -4.359375 -0.828125q-2.0 0 -3.359375 0.828125q-1.34375 0.8125 -1.34375 2.625q0 0.828125 0.328125 1.359375q0.328125 0.53125 1.03125 0.9375q0.703125 0.40625 1.84375 0.796875q1.140625 0.375 2.84375 0.78125q3.171875 0.828125 5.421875 1.65625q2.265625 0.8125 3.703125 1.875q1.4375 1.046875 2.109375 2.421875q0.671875 1.375 0.671875 3.3125q0 4.515625 -3.34375 7.140625q-3.34375 2.609375 -9.09375 2.609375zm17.542786 -0.59375l0 -30.734375l7.859375 0l0 30.734375l-7.859375 0zm0 -35.015625l0 -7.796875l7.859375 0l0 7.796875l-7.859375 0zm62.707336 35.015625l-7.859375 0l0 -17.25q0 -3.6875 -1.265625 -5.390625q-1.265625 -1.703125 -3.484375 -1.703125q-2.359375 0 -4.40625 1.796875q-2.046875 1.78125 -2.9375 4.65625l0 17.890625l-7.859375 0l0 -17.25q0 -3.6875 -1.265625 -5.390625q-1.25 -1.703125 -3.484375 -1.703125q-2.28125 0 -4.375 1.765625q-2.078125 1.75 -2.953125 4.625l0 17.953125l-7.859375 0l0 -30.734375l7.09375 0l0 5.6875q1.703125 -2.984375 4.65625 -4.59375q2.96875 -1.625 6.78125 -1.625q3.875 0 5.984375 1.875q2.109375 1.875 2.703125 4.640625q1.875 -3.171875 4.75 -4.84375q2.875 -1.671875 6.5625 -1.671875q2.828125 0 4.640625 1.0625q1.8125 1.046875 2.8125 2.75q1.0 1.703125 1.375 3.875q0.390625 2.171875 0.390625 4.390625l0 19.1875zm6.8589478 0l0 -30.734375l7.859375 0l0 30.734375l-7.859375 0zm0 -35.015625l0 -7.796875l7.859375 0l0 7.796875l-7.859375 0zm14.894836 -7.796875l7.859375 0l0 32.953125q0 1.703125 0.8125 2.640625q0.828125 0.9375 2.359375 0.9375q0.703125 0 1.546875 -0.234375q0.859375 -0.234375 1.625 -0.578125l1.046875 5.984375q-1.578125 0.75 -3.6875 1.15625q-2.109375 0.421875 -3.8125 0.421875q-3.703125 0 -5.734375 -1.953125q-2.015625 -1.96875 -2.015625 -5.609375l0 -35.71875zm27.04718 43.40625q-2.234375 0 -4.171875 -0.734375q-1.9375 -0.734375 -3.34375 -2.046875q-1.40625 -1.328125 -2.203125 -3.078125q-0.78125 -1.765625 -0.78125 -3.890625q0 -2.171875 0.96875 -4.015625q0.96875 -1.84375 2.6875 -3.125q1.734375 -1.296875 4.140625 -2.03125q2.40625 -0.734375 5.28125 -0.734375q2.046875 0 4.015625 0.359375q1.96875 0.34375 3.5 0.984375l0 -1.75q0 -3.0625 -1.734375 -4.703125q-1.734375 -1.640625 -5.140625 -1.640625q-2.453125 0 -4.8125 0.890625q-2.34375 0.875 -4.796875 2.578125l-2.40625 -4.984375q5.921875 -3.9375 12.78125 -3.9375q6.625 0 10.296875 3.265625q3.671875 3.25 3.671875 9.40625l0 9.5625q0 1.234375 0.4375 1.765625q0.4375 0.515625 1.4375 0.578125l0 6.6875q-2.0 0.40625 -3.46875 0.40625q-2.21875 0 -3.421875 -0.984375q-1.203125 -1.0 -1.5 -2.640625l-0.171875 -1.703125q-2.0625 2.6875 -5.0 4.109375q-2.921875 1.40625 -6.265625 1.40625zm2.21875 -5.75q2.0 0 3.78125 -0.703125q1.796875 -0.703125 2.796875 -1.890625q1.296875 -0.984375 1.296875 -2.21875l0 -3.515625q-1.421875 -0.53125 -3.0625 -0.84375q-1.640625 -0.328125 -3.15625 -0.328125q-3.0625 0 -5.0 1.375q-1.921875 1.375 -1.921875 3.484375q0 2.0 1.515625 3.328125q1.53125 1.3125 3.75 1.3125zm41.48114 3.578125q-1.59375 0.703125 -3.875 1.40625q-2.28125 0.703125 -4.8125 0.703125q-1.640625 0 -3.078125 -0.421875q-1.4375 -0.40625 -2.53125 -1.3125q-1.078125 -0.90625 -1.71875 -2.34375q-0.640625 -1.4375 -0.640625 -3.484375l0 -17.65625l-4.046875 0l0 -6.046875l4.046875 0l0 -9.96875l7.859375 0l0 9.96875l6.453125 0l0 6.046875l-6.453125 0l0 15.015625q0 1.640625 0.84375 2.3125q0.859375 0.671875 2.078125 0.671875q1.234375 0 2.40625 -0.40625q1.171875 -0.421875 1.875 -0.703125l1.59375 6.21875zm4.102112 1.578125l0 -30.734375l7.859375 0l0 30.734375l-7.859375 0zm0 -35.015625l0 -7.796875l7.859375 0l0 7.796875l-7.859375 0zm29.144836 35.609375q-3.75 0 -6.75 -1.296875q-2.984375 -1.296875 -5.0625 -3.484375q-2.078125 -2.203125 -3.203125 -5.078125q-1.109375 -2.875 -1.109375 -6.046875q0 -3.21875 1.109375 -6.09375q1.125 -2.875 3.203125 -5.078125q2.078125 -2.203125 5.0625 -3.484375q3.0 -1.296875 6.75 -1.296875q3.765625 0 6.71875 1.296875q2.96875 1.28125 5.046875 3.484375q2.078125 2.203125 3.1875 5.078125q1.125 2.875 1.125 6.09375q0 3.171875 -1.125 6.046875q-1.109375 2.875 -3.15625 5.078125q-2.046875 2.1875 -5.046875 3.484375q-2.984375 1.296875 -6.75 1.296875zm-8.03125 -15.90625q0 2.0625 0.609375 3.734375q0.625 1.671875 1.703125 2.90625q1.09375 1.21875 2.5625 1.90625q1.46875 0.671875 3.15625 0.671875q1.703125 0 3.171875 -0.671875q1.46875 -0.6875 2.546875 -1.90625q1.09375 -1.234375 1.703125 -2.9375q0.625 -1.703125 0.625 -3.765625q0 -1.984375 -0.625 -3.6875q-0.609375 -1.703125 -1.703125 -2.9375q-1.078125 -1.234375 -2.546875 -1.90625q-1.46875 -0.671875 -3.171875 -0.671875q-1.6875 0 -3.15625 0.703125q-1.46875 0.703125 -2.5625 1.9375q-1.078125 1.234375 -1.703125 2.9375q-0.609375 1.703125 -0.609375 3.6875zm57.951904 15.3125l-7.859375 0l0 -17.25q0 -3.6875 -1.296875 -5.390625q-1.28125 -1.703125 -3.5625 -1.703125q-1.1875 0 -2.421875 0.46875q-1.21875 0.46875 -2.3125 1.328125q-1.078125 0.84375 -1.96875 2.015625q-0.875 1.171875 -1.28125 2.578125l0 17.953125l-7.859375 0l0 -30.734375l7.09375 0l0 5.6875q1.703125 -2.9375 4.921875 -4.578125q3.234375 -1.640625 7.28125 -1.640625q2.875 0 4.6875 1.0625q1.828125 1.046875 2.8125 2.75q1.0 1.703125 1.375 3.875q0.390625 2.171875 0.390625 4.390625l0 19.1875zm19.365234 -20.359375q0 -2.984375 0.671875 -5.9375q0.671875 -2.96875 1.875 -5.953125q1.203125 -3.0 2.78125 -6.015625q1.59375 -3.03125 3.40625 -6.140625l5.984375 2.53125q-0.9375 1.40625 -2.203125 3.84375q-1.265625 2.421875 -2.40625 5.390625q-1.140625 2.953125 -1.96875 6.21875q-0.8125 3.25 -0.8125 6.25q0 4.75 2.015625 9.859375q2.03125 5.09375 5.203125 10.546875l-5.75 2.875q-1.828125 -2.703125 -3.4375 -5.59375q-1.609375 -2.90625 -2.78125 -5.890625q-1.171875 -3.0 -1.875 -5.984375q-0.703125 -3.0 -0.703125 -6.0zm20.52716 20.359375l0 -41.640625l15.125 0q5.109375 0 8.953125 1.640625q3.84375 1.640625 6.421875 4.453125q2.578125 2.8125 3.859375 6.609375q1.296875 3.78125 1.296875 8.0625q0 4.75 -1.4375 8.59375q-1.4375 3.828125 -4.140625 6.5625q-2.6875 2.734375 -6.46875 4.234375q-3.78125 1.484375 -8.484375 1.484375l-15.125 0zm27.5 -20.875q0 -3.0 -0.828125 -5.515625q-0.8125 -2.53125 -2.390625 -4.34375q-1.578125 -1.8125 -3.90625 -2.8125q-2.3125 -1.0 -5.25 -1.0l-7.03125 0l0 27.453125l7.03125 0q3.0 0 5.3125 -1.046875q2.3125 -1.0625 3.859375 -2.90625q1.5625 -1.859375 2.375 -4.375q0.828125 -2.53125 0.828125 -5.453125zm26.341614 -20.765625l7.15625 0l15.84375 41.640625l-8.328125 0l-3.875 -10.375l-14.546875 0l-3.8125 10.375l-8.328125 0l15.890625 -41.640625zm9.328125 25.5625l-5.75 -16.359375l-5.984375 16.359375l11.734375 0zm30.026367 -4.28125q0 3.0 -0.703125 6.0q-0.703125 2.984375 -1.875 5.984375q-1.171875 2.984375 -2.78125 5.890625q-1.609375 2.890625 -3.4375 5.59375l-5.75 -2.875q3.234375 -5.453125 5.21875 -10.546875q2.0 -5.109375 2.0 -9.859375q0 -3.0 -0.828125 -6.25q-0.8125 -3.265625 -1.953125 -6.21875q-1.140625 -2.96875 -2.40625 -5.390625q-1.265625 -2.4375 -2.203125 -3.84375l6.046875 -2.53125q1.8125 3.109375 3.390625 6.140625q1.59375 3.015625 2.765625 6.015625q1.171875 2.984375 1.84375 5.953125q0.671875 2.953125 0.671875 5.9375z" fill-rule="nonzero"/><path fill="#ffffff" d="m289.4375 239.48537l-3.28125 -3.453125q-2.578125 1.984375 -5.578125 3.015625q-2.984375 1.03125 -6.15625 1.03125q-3.21875 0 -5.828125 -1.0q-2.609375 -1.0 -4.4375 -2.703125q-1.8125 -1.703125 -2.8125 -3.953125q-1.0 -2.265625 -1.0 -4.734375q0 -1.921875 0.578125 -3.5625q0.59375 -1.65625 1.625 -3.03125q1.03125 -1.375 2.34375 -2.546875q1.328125 -1.171875 2.78125 -2.171875q-2.515625 -2.8125 -3.546875 -4.828125q-1.015625 -2.03125 -1.015625 -4.265625q0 -2.234375 0.875 -4.078125q0.875 -1.84375 2.390625 -3.15625q1.53125 -1.328125 3.609375 -2.03125q2.09375 -0.703125 4.5625 -0.703125q2.171875 0 4.15625 0.59375q2.0 0.578125 3.515625 1.71875q1.53125 1.140625 2.46875 2.875q0.9375 1.734375 0.9375 4.015625q0 3.40625 -2.0 5.96875q-1.984375 2.546875 -5.09375 4.765625l7.96875 8.328125q0.890625 -1.875 1.390625 -4.09375q0.5 -2.234375 0.5 -4.8125l6.390625 0q-0.0625 4.15625 -1.0 7.5625q-0.9375 3.40625 -2.640625 6.21875l8.625 9.03125l-10.328125 0zm-14.25 -5.578125q3.640625 0 6.75 -2.40625l-9.625 -10.140625q-2.046875 1.46875 -3.234375 3.0q-1.171875 1.515625 -1.171875 3.390625q0 1.234375 0.53125 2.375q0.53125 1.140625 1.5 1.96875q0.96875 0.828125 2.3125 1.328125q1.359375 0.484375 2.9375 0.484375zm-4.921875 -26.859375q0 0.53125 0.171875 1.03125q0.171875 0.5 0.578125 1.09375q0.421875 0.578125 1.09375 1.34375q0.671875 0.75 1.734375 1.875q2.21875 -1.53125 3.390625 -2.84375q1.171875 -1.328125 1.171875 -2.90625q0 -1.59375 -1.09375 -2.546875q-1.078125 -0.96875 -2.765625 -0.96875q-1.890625 0 -3.09375 1.140625q-1.1875 1.140625 -1.1875 2.78125zm65.5751 30.859375q-1.59375 0.703125 -3.875 1.40625q-2.28125 0.703125 -4.8125 0.703125q-1.640625 0 -3.078125 -0.421875q-1.4375 -0.40625 -2.53125 -1.3125q-1.078125 -0.90625 -1.71875 -2.34375q-0.640625 -1.4375 -0.640625 -3.484375l0 -17.65625l-4.046875 0l0 -6.046875l4.046875 0l0 -9.96875l7.859375 0l0 9.96875l6.453125 0l0 6.046875l-6.453125 0l0 15.015625q0 1.640625 0.84375 2.3125q0.859375 0.671875 2.078125 0.671875q1.234375 0 2.40625 -0.40625q1.171875 -0.421875 1.875 -0.703125l1.59375 6.21875zm32.66461 1.578125l-7.859375 0l0 -17.25q0 -3.625 -1.359375 -5.359375q-1.34375 -1.734375 -3.796875 -1.734375q-1.0625 0 -2.234375 0.46875q-1.171875 0.46875 -2.234375 1.328125q-1.046875 0.84375 -1.9375 2.015625q-0.875 1.171875 -1.28125 2.578125l0 17.953125l-7.859375 0l0 -42.8125l7.859375 0l0 17.765625q1.703125 -2.984375 4.609375 -4.59375q2.90625 -1.625 6.421875 -1.625q2.984375 0 4.859375 1.03125q1.875 1.03125 2.9375 2.734375q1.0625 1.6875 1.46875 3.859375q0.40625 2.171875 0.40625 4.453125l0 19.1875zm21.115875 0.59375q-3.6875 0 -6.6875 -1.265625q-2.984375 -1.265625 -5.09375 -3.4375q-2.109375 -2.171875 -3.265625 -5.046875q-1.140625 -2.875 -1.140625 -6.03125q0 -3.296875 1.109375 -6.1875q1.125 -2.90625 3.234375 -5.109375q2.109375 -2.203125 5.125 -3.484375q3.03125 -1.296875 6.78125 -1.296875q3.75 0 6.703125 1.296875q2.96875 1.28125 5.046875 3.453125q2.09375 2.171875 3.171875 5.046875q1.09375 2.875 1.09375 5.984375q0 0.765625 -0.03125 1.46875q-0.03125 0.703125 -0.140625 1.171875l-23.765625 0q0.171875 1.8125 0.875 3.21875q0.71875 1.40625 1.828125 2.40625q1.109375 1.0 2.515625 1.53125q1.40625 0.53125 2.9375 0.53125q2.34375 0 4.421875 -1.140625q2.09375 -1.15625 2.84375 -3.03125l6.75 1.875q-1.703125 3.515625 -5.421875 5.78125q-3.71875 2.265625 -8.890625 2.265625zm7.984375 -18.546875q-0.296875 -3.453125 -2.5625 -5.53125q-2.25 -2.09375 -5.484375 -2.09375q-1.578125 0 -2.953125 0.5625q-1.375 0.5625 -2.4375 1.5625q-1.046875 0.984375 -1.734375 2.390625q-0.671875 1.40625 -0.78125 3.109375l15.953125 0zm56.66568 10.859375l0 7.09375l-28.921875 0l0 -41.640625l28.390625 0l0 7.09375l-20.296875 0l0 10.03125l17.53125 0l0 6.5625l-17.53125 0l0 10.859375l20.828125 0zm34.12738 7.09375l-7.859375 0l0 -17.25q0 -3.6875 -1.296875 -5.390625q-1.28125 -1.703125 -3.5625 -1.703125q-1.1875 0 -2.421875 0.46875q-1.21875 0.46875 -2.3125 1.328125q-1.078125 0.84375 -1.96875 2.015625q-0.875 1.171875 -1.28125 2.578125l0 17.953125l-7.859375 0l0 -30.734375l7.09375 0l0 5.6875q1.703125 -2.9375 4.921875 -4.578125q3.234375 -1.640625 7.28125 -1.640625q2.875 0 4.6875 1.0625q1.828125 1.046875 2.8125 2.75q1.0 1.703125 1.375 3.875q0.390625 2.171875 0.390625 4.390625l0 19.1875zm7.6315002 0l0 -41.59375l8.09375 0l0 19.78125l17.484375 -19.828125l8.90625 0l-15.953125 18.46875l16.953125 23.171875l-9.09375 0l-12.96875 -18.0l-5.328125 5.5625l0 12.4375l-8.09375 0zm39.240967 0l0 -41.640625l27.96875 0l0 7.09375l-19.875 0l0 10.734375l16.53125 0l0 6.5625l-16.53125 0l0 17.25l-8.09375 0z" fill-rule="nonzero"/><path fill="#000000" fill-opacity="0.0" d="m250.94664 339.99475l664.7244 0l0 130.36221l-664.7244 0z" fill-rule="evenodd"/><path fill="#ffffff" d="m262.38416 454.07697l0 -23.5625l2.859375 0l0 9.6875q1.0 -1.171875 2.296875 -1.875q1.3125 -0.71875 3.0 -0.71875q1.40625 0 2.53125 0.53125q1.140625 0.53125 1.9375 1.578125q0.8125 1.046875 1.234375 2.59375q0.4375 1.546875 0.4375 3.5625q0 1.78125 -0.484375 3.328125q-0.46875 1.546875 -1.375 2.671875q-0.90625 1.125 -2.21875 1.78125q-1.296875 0.640625 -2.921875 0.640625q-1.578125 0 -2.671875 -0.59375q-1.09375 -0.609375 -1.90625 -1.703125l-0.140625 1.46875q-0.140625 0.609375 -0.75 0.609375l-1.828125 0zm7.21875 -14.1875q-1.390625 0 -2.4375 0.640625q-1.046875 0.640625 -1.921875 1.796875l0 7.84375q0.765625 1.0625 1.703125 1.5q0.9375 0.421875 2.09375 0.421875q2.265625 0 3.484375 -1.609375q1.21875 -1.625 1.21875 -4.609375q0 -1.59375 -0.28125 -2.71875q-0.28125 -1.140625 -0.8125 -1.859375q-0.53125 -0.734375 -1.296875 -1.0625q-0.765625 -0.34375 -1.75 -0.34375zm15.325531 18.96875q-0.15625 0.328125 -0.375 0.515625q-0.203125 0.1875 -0.65625 0.1875l-2.109375 0l2.953125 -6.421875l-6.6875 -15.265625l2.46875 0q0.375 0 0.578125 0.1875q0.203125 0.171875 0.296875 0.40625l4.34375 10.203125q0.140625 0.34375 0.234375 0.703125q0.109375 0.34375 0.203125 0.71875q0.109375 -0.375 0.21875 -0.71875q0.109375 -0.359375 0.25 -0.71875l4.21875 -10.1875q0.09375 -0.265625 0.3125 -0.421875q0.234375 -0.171875 0.515625 -0.171875l2.265625 0l-9.03125 20.984375zm17.810028 0.703125l0 -21.6875l1.6875 0q0.609375 0 0.765625 0.59375l0.25 1.90625q1.03125 -1.25 2.359375 -2.015625q1.34375 -0.78125 3.09375 -0.78125q1.390625 0 2.515625 0.546875q1.140625 0.53125 1.9375 1.578125q0.8125 1.046875 1.234375 2.609375q0.4375 1.546875 0.4375 3.5625q0 1.78125 -0.484375 3.328125q-0.484375 1.546875 -1.375 2.671875q-0.890625 1.125 -2.203125 1.78125q-1.296875 0.640625 -2.9375 0.640625q-1.5 0 -2.5625 -0.484375q-1.0625 -0.5 -1.875 -1.421875l0 7.171875l-2.84375 0zm7.203125 -19.671875q-1.390625 0 -2.4375 0.640625q-1.046875 0.640625 -1.921875 1.796875l0 7.84375q0.78125 1.0625 1.71875 1.5q0.9375 0.421875 2.078125 0.421875q2.265625 0 3.484375 -1.609375q1.21875 -1.625 1.21875 -4.609375q0 -1.59375 -0.28125 -2.71875q-0.28125 -1.140625 -0.8125 -1.859375q-0.53125 -0.734375 -1.296875 -1.0625q-0.765625 -0.34375 -1.75 -0.34375zm22.351532 14.1875l-1.265625 0q-0.40625 0 -0.671875 -0.125q-0.25 -0.125 -0.328125 -0.546875l-0.328125 -1.5q-0.625 0.578125 -1.234375 1.03125q-0.609375 0.453125 -1.28125 0.765625q-0.671875 0.3125 -1.4375 0.46875q-0.765625 0.15625 -1.6875 0.15625q-0.9375 0 -1.765625 -0.25q-0.828125 -0.265625 -1.4375 -0.796875q-0.609375 -0.53125 -0.96875 -1.328125q-0.359375 -0.8125 -0.359375 -1.921875q0 -0.96875 0.53125 -1.84375q0.53125 -0.890625 1.703125 -1.578125q1.171875 -0.6875 3.078125 -1.125q1.90625 -0.453125 4.65625 -0.515625l0 -1.265625q0 -1.875 -0.8125 -2.84375q-0.796875 -0.96875 -2.390625 -0.96875q-1.03125 0 -1.75 0.265625q-0.703125 0.265625 -1.234375 0.59375q-0.515625 0.3125 -0.890625 0.578125q-0.375 0.265625 -0.75 0.265625q-0.28125 0 -0.5 -0.140625q-0.21875 -0.15625 -0.34375 -0.390625l-0.515625 -0.90625q1.34375 -1.296875 2.890625 -1.9375q1.5625 -0.640625 3.453125 -0.640625q1.359375 0 2.40625 0.453125q1.0625 0.453125 1.78125 1.25q0.71875 0.796875 1.078125 1.9375q0.375 1.125 0.375 2.484375l0 10.375zm-7.390625 -1.75q0.75 0 1.375 -0.140625q0.625 -0.15625 1.171875 -0.4375q0.5625 -0.28125 1.0625 -0.671875q0.5 -0.40625 0.984375 -0.921875l0 -3.375q-1.96875 0.0625 -3.34375 0.3125q-1.375 0.25 -2.25 0.65625q-0.859375 0.390625 -1.25 0.9375q-0.390625 0.546875 -0.390625 1.21875q0 0.640625 0.203125 1.109375q0.21875 0.453125 0.5625 0.75q0.359375 0.296875 0.828125 0.4375q0.484375 0.125 1.046875 0.125zm16.63028 2.0q-1.921875 0 -2.953125 -1.0625q-1.03125 -1.078125 -1.03125 -3.09375l0 -9.921875l-1.953125 0q-0.25 0 -0.4375 -0.140625q-0.171875 -0.15625 -0.171875 -0.484375l0 -1.125l2.65625 -0.34375l0.65625 -5.0q0.03125 -0.25 0.203125 -0.390625q0.1875 -0.15625 0.453125 -0.15625l1.4375 0l0 5.578125l4.640625 0l0 2.0625l-4.640625 0l0 9.734375q0 1.015625 0.5 1.515625q0.5 0.5 1.28125 0.5q0.453125 0 0.765625 -0.109375q0.328125 -0.125 0.5625 -0.265625q0.25 -0.15625 0.421875 -0.265625q0.171875 -0.125 0.296875 -0.125q0.21875 0 0.40625 0.265625l0.828125 1.359375q-0.734375 0.6875 -1.78125 1.078125q-1.03125 0.390625 -2.140625 0.390625zm7.029785 -0.25l0 -16.203125l1.625 0q0.46875 0 0.640625 0.171875q0.171875 0.171875 0.234375 0.609375l0.203125 2.53125q0.828125 -1.703125 2.046875 -2.65625q1.21875 -0.953125 2.875 -0.953125q0.671875 0 1.21875 0.15625q0.546875 0.15625 1.0 0.421875l-0.359375 2.125q-0.109375 0.40625 -0.5 0.40625q-0.21875 0 -0.6875 -0.15625q-0.46875 -0.15625 -1.296875 -0.15625q-1.484375 0 -2.484375 0.875q-1.0 0.859375 -1.671875 2.515625l0 10.3125l-2.84375 0zm16.052277 -16.203125l0 16.203125l-2.84375 0l0 -16.203125l2.84375 0zm0.640625 -5.09375q0 0.421875 -0.171875 0.78125q-0.15625 0.359375 -0.4375 0.640625q-0.28125 0.28125 -0.65625 0.4375q-0.359375 0.15625 -0.78125 0.15625q-0.40625 0 -0.78125 -0.15625q-0.359375 -0.15625 -0.640625 -0.4375q-0.265625 -0.28125 -0.4375 -0.640625q-0.15625 -0.359375 -0.15625 -0.78125q0 -0.421875 0.15625 -0.796875q0.171875 -0.375 0.4375 -0.65625q0.28125 -0.28125 0.640625 -0.4375q0.375 -0.15625 0.78125 -0.15625q0.421875 0 0.78125 0.15625q0.375 0.15625 0.65625 0.4375q0.28125 0.28125 0.4375 0.65625q0.171875 0.375 0.171875 0.796875zm15.442017 7.96875q-0.125 0.171875 -0.25 0.28125q-0.125 0.09375 -0.375 0.09375q-0.234375 0 -0.515625 -0.203125q-0.28125 -0.203125 -0.71875 -0.4375q-0.421875 -0.25 -1.046875 -0.4375q-0.609375 -0.203125 -1.515625 -0.203125q-1.171875 0 -2.09375 0.421875q-0.90625 0.421875 -1.53125 1.21875q-0.609375 0.796875 -0.921875 1.9375q-0.3125 1.140625 -0.3125 2.546875q0 1.46875 0.328125 2.609375q0.34375 1.140625 0.953125 1.921875q0.609375 0.78125 1.484375 1.1875q0.875 0.40625 1.953125 0.40625q1.046875 0 1.71875 -0.25q0.671875 -0.25 1.109375 -0.546875q0.453125 -0.3125 0.734375 -0.546875q0.296875 -0.25 0.578125 -0.25q0.375 0 0.546875 0.265625l0.796875 1.046875q-1.046875 1.296875 -2.640625 1.890625q-1.578125 0.59375 -3.328125 0.59375q-1.53125 0 -2.84375 -0.546875q-1.296875 -0.5625 -2.265625 -1.625q-0.953125 -1.078125 -1.5 -2.625q-0.546875 -1.546875 -0.546875 -3.53125q0 -1.8125 0.5 -3.34375q0.5 -1.53125 1.46875 -2.640625q0.96875 -1.125 2.390625 -1.75q1.421875 -0.625 3.265625 -0.625q1.703125 0 3.015625 0.5625q1.3125 0.546875 2.3125 1.546875l-0.75 1.03125zm6.850281 -10.234375l0 13.859375l0.734375 0q0.328125 0 0.53125 -0.078125q0.203125 -0.09375 0.46875 -0.359375l5.109375 -5.484375q0.25 -0.265625 0.484375 -0.421875q0.234375 -0.15625 0.640625 -0.15625l2.59375 0l-5.96875 6.34375q-0.234375 0.28125 -0.453125 0.484375q-0.203125 0.203125 -0.484375 0.359375q0.296875 0.203125 0.53125 0.453125q0.234375 0.25 0.4375 0.5625l6.328125 8.0l-2.546875 0q-0.359375 0 -0.609375 -0.125q-0.25 -0.140625 -0.46875 -0.4375l-5.328125 -6.640625q-0.234375 -0.328125 -0.484375 -0.4375q-0.234375 -0.109375 -0.71875 -0.109375l-0.796875 0l0 7.75l-2.859375 0l0 -23.5625l2.859375 0zm12.877411 21.796875q0 -0.40625 0.15625 -0.765625q0.15625 -0.375 0.40625 -0.640625q0.265625 -0.28125 0.625 -0.4375q0.375 -0.171875 0.796875 -0.171875q0.421875 0 0.78125 0.171875q0.375 0.15625 0.640625 0.4375q0.28125 0.265625 0.421875 0.640625q0.15625 0.359375 0.15625 0.765625q0 0.4375 -0.15625 0.796875q-0.140625 0.359375 -0.421875 0.640625q-0.265625 0.265625 -0.640625 0.40625q-0.359375 0.15625 -0.78125 0.15625q-0.421875 0 -0.796875 -0.15625q-0.359375 -0.140625 -0.625 -0.40625q-0.25 -0.28125 -0.40625 -0.640625q-0.15625 -0.359375 -0.15625 -0.796875zm7.7214966 1.765625l0 -16.203125l1.6875 0q0.609375 0 0.765625 0.59375l0.234375 1.75q1.046875 -1.171875 2.34375 -1.890625q1.3125 -0.71875 3.03125 -0.71875q1.328125 0 2.34375 0.453125q1.015625 0.4375 1.6875 1.25q0.6875 0.796875 1.03125 1.9375q0.359375 1.125 0.359375 2.515625l0 10.3125l-2.859375 0l0 -10.3125q0 -1.84375 -0.84375 -2.859375q-0.828125 -1.015625 -2.5625 -1.015625q-1.265625 0 -2.359375 0.609375q-1.09375 0.609375 -2.015625 1.640625l0 11.9375l-2.84375 0zm16.854553 -1.765625q0 -0.40625 0.15625 -0.765625q0.15625 -0.375 0.40625 -0.640625q0.265625 -0.28125 0.625 -0.4375q0.375 -0.171875 0.796875 -0.171875q0.421875 0 0.78125 0.171875q0.375 0.15625 0.640625 0.4375q0.28125 0.265625 0.421875 0.640625q0.15625 0.359375 0.15625 0.765625q0 0.4375 -0.15625 0.796875q-0.140625 0.359375 -0.421875 0.640625q-0.265625 0.265625 -0.640625 0.40625q-0.359375 0.15625 -0.78125 0.15625q-0.421875 0 -0.796875 -0.15625q-0.359375 -0.140625 -0.625 -0.40625q-0.25 -0.28125 -0.40625 -0.640625q-0.15625 -0.359375 -0.15625 -0.796875zm7.7214966 1.765625l0 -16.203125l1.625 0q0.46875 0 0.640625 0.171875q0.171875 0.171875 0.234375 0.609375l0.203125 2.53125q0.828125 -1.703125 2.046875 -2.65625q1.21875 -0.953125 2.875 -0.953125q0.671875 0 1.21875 0.15625q0.546875 0.15625 1.0 0.421875l-0.359375 2.125q-0.109375 0.40625 -0.5 0.40625q-0.21875 0 -0.6875 -0.15625q-0.46875 -0.15625 -1.296875 -0.15625q-1.484375 0 -2.484375 0.875q-1.0 0.859375 -1.671875 2.515625l0 10.3125l-2.84375 0zm24.786652 0l-1.265625 0q-0.40625 0 -0.671875 -0.125q-0.25 -0.125 -0.328125 -0.546875l-0.328125 -1.5q-0.625 0.578125 -1.234375 1.03125q-0.609375 0.453125 -1.28125 0.765625q-0.671875 0.3125 -1.4375 0.46875q-0.765625 0.15625 -1.6875 0.15625q-0.9375 0 -1.765625 -0.25q-0.828125 -0.265625 -1.4375 -0.796875q-0.609375 -0.53125 -0.96875 -1.328125q-0.359375 -0.8125 -0.359375 -1.921875q0 -0.96875 0.53125 -1.84375q0.53125 -0.890625 1.703125 -1.578125q1.171875 -0.6875 3.078125 -1.125q1.90625 -0.453125 4.65625 -0.515625l0 -1.265625q0 -1.875 -0.8125 -2.84375q-0.796875 -0.96875 -2.390625 -0.96875q-1.03125 0 -1.75 0.265625q-0.703125 0.265625 -1.234375 0.59375q-0.515625 0.3125 -0.890625 0.578125q-0.375 0.265625 -0.75 0.265625q-0.28125 0 -0.5 -0.140625q-0.21875 -0.15625 -0.34375 -0.390625l-0.515625 -0.90625q1.34375 -1.296875 2.890625 -1.9375q1.5625 -0.640625 3.453125 -0.640625q1.359375 0 2.40625 0.453125q1.0625 0.453125 1.78125 1.25q0.71875 0.796875 1.078125 1.9375q0.375 1.125 0.375 2.484375l0 10.375zm-7.390625 -1.75q0.75 0 1.375 -0.140625q0.625 -0.15625 1.171875 -0.4375q0.5625 -0.28125 1.0625 -0.671875q0.5 -0.40625 0.984375 -0.921875l0 -3.375q-1.96875 0.0625 -3.34375 0.3125q-1.375 0.25 -2.25 0.65625q-0.859375 0.390625 -1.25 0.9375q-0.390625 0.546875 -0.390625 1.21875q0 0.640625 0.203125 1.109375q0.21875 0.453125 0.5625 0.75q0.359375 0.296875 0.828125 0.4375q0.484375 0.125 1.046875 0.125zm23.614655 1.75l-1.265625 0q-0.40625 0 -0.671875 -0.125q-0.25 -0.125 -0.328125 -0.546875l-0.328125 -1.5q-0.625 0.578125 -1.234375 1.03125q-0.609375 0.453125 -1.28125 0.765625q-0.671875 0.3125 -1.4375 0.46875q-0.765625 0.15625 -1.6875 0.15625q-0.9375 0 -1.765625 -0.25q-0.828125 -0.265625 -1.4375 -0.796875q-0.609375 -0.53125 -0.96875 -1.328125q-0.359375 -0.8125 -0.359375 -1.921875q0 -0.96875 0.53125 -1.84375q0.53125 -0.890625 1.703125 -1.578125q1.171875 -0.6875 3.078125 -1.125q1.90625 -0.453125 4.65625 -0.515625l0 -1.265625q0 -1.875 -0.8125 -2.84375q-0.796875 -0.96875 -2.390625 -0.96875q-1.03125 0 -1.75 0.265625q-0.703125 0.265625 -1.234375 0.59375q-0.515625 0.3125 -0.890625 0.578125q-0.375 0.265625 -0.75 0.265625q-0.28125 0 -0.5 -0.140625q-0.21875 -0.15625 -0.34375 -0.390625l-0.515625 -0.90625q1.34375 -1.296875 2.890625 -1.9375q1.5625 -0.640625 3.453125 -0.640625q1.359375 0 2.40625 0.453125q1.0625 0.453125 1.78125 1.25q0.71875 0.796875 1.078125 1.9375q0.375 1.125 0.375 2.484375l0 10.375zm-7.390625 -1.75q0.75 0 1.375 -0.140625q0.625 -0.15625 1.171875 -0.4375q0.5625 -0.28125 1.0625 -0.671875q0.5 -0.40625 0.984375 -0.921875l0 -3.375q-1.96875 0.0625 -3.34375 0.3125q-1.375 0.25 -2.25 0.65625q-0.859375 0.390625 -1.25 0.9375q-0.390625 0.546875 -0.390625 1.21875q0 0.640625 0.203125 1.109375q0.21875 0.453125 0.5625 0.75q0.359375 0.296875 0.828125 0.4375q0.484375 0.125 1.046875 0.125zm11.72403 1.75l0 -16.203125l1.6875 0q0.609375 0 0.765625 0.59375l0.234375 1.75q1.046875 -1.171875 2.34375 -1.890625q1.3125 -0.71875 3.03125 -0.71875q1.328125 0 2.34375 0.453125q1.015625 0.4375 1.6875 1.25q0.6875 0.796875 1.03125 1.9375q0.359375 1.125 0.359375 2.515625l0 10.3125l-2.859375 0l0 -10.3125q0 -1.84375 -0.84375 -2.859375q-0.828125 -1.015625 -2.5625 -1.015625q-1.265625 0 -2.359375 0.609375q-1.09375 0.609375 -2.015625 1.640625l0 11.9375l-2.84375 0zm24.198303 -16.46875q1.453125 0 2.6875 0.5q1.234375 0.484375 2.125 1.40625q0.90625 0.921875 1.40625 2.28125q0.5 1.34375 0.5 3.0625q0 0.671875 -0.140625 0.90625q-0.140625 0.21875 -0.546875 0.21875l-10.78125 0q0.03125 1.53125 0.40625 2.671875q0.390625 1.140625 1.0625 1.90625q0.671875 0.75 1.59375 1.125q0.9375 0.375 2.09375 0.375q1.0625 0 1.84375 -0.25q0.78125 -0.25 1.328125 -0.53125q0.5625 -0.296875 0.9375 -0.53125q0.375 -0.25 0.65625 -0.25q0.34375 0 0.546875 0.265625l0.796875 1.046875q-0.53125 0.640625 -1.265625 1.109375q-0.734375 0.46875 -1.578125 0.78125q-0.84375 0.296875 -1.734375 0.4375q-0.890625 0.15625 -1.78125 0.15625q-1.671875 0 -3.09375 -0.5625q-1.40625 -0.5625 -2.4375 -1.65625q-1.03125 -1.109375 -1.609375 -2.71875q-0.578125 -1.625 -0.578125 -3.71875q0 -1.6875 0.515625 -3.15625q0.515625 -1.484375 1.484375 -2.5625q0.984375 -1.078125 2.390625 -1.6875q1.40625 -0.625 3.171875 -0.625zm0.0625 2.09375q-2.0625 0 -3.25 1.203125q-1.171875 1.1875 -1.46875 3.296875l8.8125 0q0 -0.984375 -0.265625 -1.8125q-0.265625 -0.828125 -0.796875 -1.421875q-0.53125 -0.609375 -1.296875 -0.9375q-0.75 -0.328125 -1.734375 -0.328125zm19.56491 0.84375q-0.1875 0.34375 -0.578125 0.34375q-0.25 0 -0.5625 -0.171875q-0.296875 -0.171875 -0.734375 -0.390625q-0.4375 -0.21875 -1.046875 -0.40625q-0.609375 -0.1875 -1.4375 -0.1875q-0.71875 0 -1.296875 0.1875q-0.578125 0.1875 -0.984375 0.515625q-0.40625 0.3125 -0.625 0.734375q-0.21875 0.421875 -0.21875 0.921875q0 0.625 0.359375 1.046875q0.359375 0.40625 0.953125 0.71875q0.59375 0.296875 1.34375 0.53125q0.75 0.234375 1.546875 0.5q0.796875 0.265625 1.546875 0.59375q0.75 0.3125 1.34375 0.796875q0.59375 0.46875 0.953125 1.171875q0.359375 0.6875 0.359375 1.671875q0 1.109375 -0.40625 2.0625q-0.390625 0.953125 -1.1875 1.65625q-0.78125 0.6875 -1.921875 1.09375q-1.125 0.390625 -2.609375 0.390625q-1.703125 0 -3.078125 -0.546875q-1.375 -0.546875 -2.34375 -1.421875l0.671875 -1.078125q0.140625 -0.21875 0.3125 -0.328125q0.171875 -0.109375 0.46875 -0.109375q0.28125 0 0.59375 0.234375q0.328125 0.21875 0.78125 0.5q0.453125 0.265625 1.09375 0.484375q0.65625 0.21875 1.640625 0.21875q0.828125 0 1.453125 -0.203125q0.625 -0.21875 1.03125 -0.578125q0.421875 -0.375 0.625 -0.859375q0.203125 -0.484375 0.203125 -1.03125q0 -0.671875 -0.359375 -1.109375q-0.359375 -0.4375 -0.953125 -0.75q-0.59375 -0.3125 -1.359375 -0.546875q-0.75 -0.234375 -1.546875 -0.484375q-0.796875 -0.25 -1.5625 -0.578125q-0.75 -0.328125 -1.34375 -0.828125q-0.59375 -0.5 -0.953125 -1.21875q-0.359375 -0.734375 -0.359375 -1.78125q0 -0.921875 0.375 -1.78125q0.390625 -0.859375 1.125 -1.5q0.734375 -0.65625 1.8125 -1.03125q1.078125 -0.390625 2.453125 -0.390625q1.59375 0 2.859375 0.515625q1.28125 0.5 2.203125 1.375l-0.640625 1.046875zm20.9505 10.5625q-1.25 0 -2.03125 -0.59375q-0.78125 -0.609375 -1.0 -1.859375q-0.921875 1.296875 -2.015625 1.859375q-1.078125 0.546875 -2.328125 0.546875q-0.953125 0 -1.671875 -0.3125q-0.703125 -0.328125 -1.171875 -0.90625q-0.46875 -0.59375 -0.703125 -1.390625q-0.234375 -0.8125 -0.234375 -1.734375q0 -1.359375 0.515625 -2.734375q0.53125 -1.390625 1.546875 -2.5q1.03125 -1.125 2.546875 -1.828125q1.53125 -0.703125 3.53125 -0.703125q1.078125 0 1.890625 0.171875q0.8125 0.171875 1.53125 0.484375l-1.5 5.78125q-0.296875 1.203125 -0.296875 1.984375q0 0.578125 0.140625 0.953125q0.140625 0.375 0.390625 0.59375q0.25 0.21875 0.578125 0.296875q0.328125 0.078125 0.703125 0.078125q0.78125 0 1.484375 -0.453125q0.703125 -0.453125 1.234375 -1.265625q0.546875 -0.8125 0.84375 -1.953125q0.3125 -1.140625 0.3125 -2.53125q0 -2.21875 -0.71875 -3.875q-0.703125 -1.671875 -1.9375 -2.78125q-1.234375 -1.109375 -2.921875 -1.65625q-1.6875 -0.5625 -3.640625 -0.5625q-2.15625 0 -4.03125 0.828125q-1.859375 0.8125 -3.25 2.25q-1.390625 1.4375 -2.203125 3.40625q-0.796875 1.96875 -0.796875 4.28125q0 2.71875 0.859375 4.78125q0.859375 2.0625 2.328125 3.453125q1.484375 1.390625 3.46875 2.09375q2.0 0.703125 4.296875 0.703125q2.421875 0 4.28125 -0.53125q1.875 -0.53125 3.234375 -1.34375q0.234375 -0.140625 0.4375 -0.140625q0.328125 0 0.484375 0.375l0.40625 1.0625q-1.71875 1.15625 -3.90625 1.8125q-2.171875 0.65625 -4.9375 0.65625q-2.78125 0 -5.171875 -0.890625q-2.375 -0.875 -4.125 -2.53125q-1.75 -1.65625 -2.75 -4.046875q-1.0 -2.40625 -1.0 -5.453125q0 -1.734375 0.4375 -3.34375q0.4375 -1.625 1.234375 -3.015625q0.8125 -1.40625 1.921875 -2.5625q1.125 -1.171875 2.5 -1.984375q1.375 -0.828125 2.953125 -1.28125q1.59375 -0.46875 3.328125 -0.46875q1.46875 0 2.875 0.328125q1.40625 0.3125 2.65625 0.9375q1.265625 0.625 2.3125 1.546875q1.0625 0.921875 1.8125 2.125q0.765625 1.1875 1.1875 2.65625q0.4375 1.453125 0.4375 3.171875q0 1.71875 -0.5 3.1875q-0.484375 1.453125 -1.34375 2.53125q-0.84375 1.078125 -2.015625 1.6875q-1.15625 0.609375 -2.5 0.609375zm-6.8125 -1.921875q0.5 0 1.0 -0.15625q0.5 -0.171875 0.96875 -0.5625q0.46875 -0.40625 0.859375 -1.09375q0.40625 -0.6875 0.671875 -1.734375l1.21875 -4.71875q-0.625 -0.140625 -1.359375 -0.140625q-1.203125 0 -2.203125 0.515625q-1.0 0.5 -1.71875 1.3125q-0.71875 0.8125 -1.125 1.875q-0.40625 1.046875 -0.40625 2.15625q0 1.15625 0.515625 1.859375q0.53125 0.6875 1.578125 0.6875zm22.241577 -11.59375q1.046875 0 1.96875 0.234375q0.921875 0.234375 1.671875 0.6875l4.40625 0l0 1.046875q0 0.53125 -0.671875 0.671875l-1.84375 0.265625q0.546875 1.03125 0.546875 2.3125q0 1.1875 -0.46875 2.15625q-0.453125 0.96875 -1.265625 1.65625q-0.796875 0.6875 -1.90625 1.0625q-1.109375 0.359375 -2.4375 0.359375q-1.140625 0 -2.15625 -0.265625q-0.5 0.3125 -0.765625 0.6875q-0.265625 0.359375 -0.265625 0.71875q0 0.578125 0.453125 0.875q0.46875 0.28125 1.234375 0.421875q0.78125 0.125 1.75 0.15625q0.984375 0.03125 2.0 0.109375q1.015625 0.0625 1.984375 0.25q0.984375 0.171875 1.75 0.578125q0.765625 0.390625 1.21875 1.09375q0.46875 0.703125 0.46875 1.828125q0 1.03125 -0.515625 2.0q-0.515625 0.984375 -1.5 1.734375q-0.96875 0.765625 -2.390625 1.21875q-1.40625 0.46875 -3.171875 0.46875q-1.78125 0 -3.125 -0.359375q-1.328125 -0.34375 -2.203125 -0.9375q-0.875 -0.59375 -1.328125 -1.375q-0.4375 -0.765625 -0.4375 -1.625q0 -1.1875 0.75 -2.03125q0.765625 -0.84375 2.09375 -1.34375q-0.6875 -0.3125 -1.09375 -0.84375q-0.40625 -0.546875 -0.40625 -1.4375q0 -0.359375 0.125 -0.734375q0.140625 -0.375 0.390625 -0.734375q0.265625 -0.375 0.65625 -0.703125q0.390625 -0.34375 0.890625 -0.59375q-1.1875 -0.671875 -1.875 -1.78125q-0.6875 -1.125 -0.6875 -2.609375q0 -1.1875 0.453125 -2.15625q0.46875 -0.96875 1.28125 -1.640625q0.8125 -0.6875 1.9375 -1.046875q1.140625 -0.375 2.484375 -0.375zm5.046875 17.359375q0 -0.609375 -0.34375 -0.96875q-0.328125 -0.375 -0.90625 -0.5625q-0.5625 -0.203125 -1.328125 -0.296875q-0.75 -0.109375 -1.578125 -0.140625q-0.828125 -0.046875 -1.703125 -0.09375q-0.859375 -0.046875 -1.640625 -0.171875q-0.90625 0.4375 -1.484375 1.0625q-0.5625 0.609375 -0.5625 1.484375q0 0.546875 0.28125 1.015625q0.28125 0.46875 0.859375 0.8125q0.578125 0.34375 1.4375 0.546875q0.875 0.203125 2.0625 0.203125q1.15625 0 2.0625 -0.21875q0.90625 -0.203125 1.53125 -0.59375q0.640625 -0.375 0.96875 -0.90625q0.34375 -0.53125 0.34375 -1.171875zm-5.046875 -8.796875q0.859375 0 1.515625 -0.234375q0.671875 -0.25 1.109375 -0.671875q0.453125 -0.4375 0.671875 -1.03125q0.234375 -0.609375 0.234375 -1.328125q0 -1.484375 -0.90625 -2.359375q-0.90625 -0.890625 -2.625 -0.890625q-1.71875 0 -2.625 0.890625q-0.90625 0.875 -0.90625 2.359375q0 0.71875 0.234375 1.328125q0.234375 0.59375 0.671875 1.03125q0.453125 0.421875 1.109375 0.671875q0.65625 0.234375 1.515625 0.234375zm10.898926 7.921875l0 -16.203125l1.6875 0q0.609375 0 0.765625 0.59375l0.21875 1.65625q0.890625 -1.109375 2.0 -1.8125q1.109375 -0.703125 2.578125 -0.703125q1.65625 0 2.671875 0.921875q1.015625 0.90625 1.46875 2.453125q0.328125 -0.875 0.875 -1.515625q0.5625 -0.640625 1.25 -1.046875q0.6875 -0.421875 1.453125 -0.609375q0.78125 -0.203125 1.578125 -0.203125q1.28125 0 2.28125 0.421875q1.0 0.40625 1.6875 1.1875q0.703125 0.78125 1.0625 1.921875q0.375 1.140625 0.375 2.625l0 10.3125l-2.84375 0l0 -10.3125q0 -1.90625 -0.828125 -2.890625q-0.828125 -0.984375 -2.421875 -0.984375q-0.703125 0 -1.34375 0.25q-0.625 0.234375 -1.109375 0.71875q-0.46875 0.484375 -0.75 1.21875q-0.28125 0.71875 -0.28125 1.6875l0 10.3125l-2.84375 0l0 -10.3125q0 -1.953125 -0.796875 -2.90625q-0.78125 -0.96875 -2.28125 -0.96875q-1.046875 0 -1.953125 0.5625q-0.90625 0.5625 -1.65625 1.546875l0 12.078125l-2.84375 0zm38.16266 0l-1.265625 0q-0.40625 0 -0.671875 -0.125q-0.25 -0.125 -0.328125 -0.546875l-0.328125 -1.5q-0.625 0.578125 -1.234375 1.03125q-0.609375 0.453125 -1.28125 0.765625q-0.671875 0.3125 -1.4375 0.46875q-0.765625 0.15625 -1.6875 0.15625q-0.9375 0 -1.765625 -0.25q-0.828125 -0.265625 -1.4375 -0.796875q-0.609375 -0.53125 -0.96875 -1.328125q-0.359375 -0.8125 -0.359375 -1.921875q0 -0.96875 0.53125 -1.84375q0.53125 -0.890625 1.703125 -1.578125q1.171875 -0.6875 3.078125 -1.125q1.90625 -0.453125 4.65625 -0.515625l0 -1.265625q0 -1.875 -0.8125 -2.84375q-0.796875 -0.96875 -2.390625 -0.96875q-1.03125 0 -1.75 0.265625q-0.703125 0.265625 -1.234375 0.59375q-0.515625 0.3125 -0.890625 0.578125q-0.375 0.265625 -0.75 0.265625q-0.28125 0 -0.5 -0.140625q-0.21875 -0.15625 -0.34375 -0.390625l-0.515625 -0.90625q1.34375 -1.296875 2.890625 -1.9375q1.5625 -0.640625 3.453125 -0.640625q1.359375 0 2.40625 0.453125q1.0625 0.453125 1.78125 1.25q0.71875 0.796875 1.078125 1.9375q0.375 1.125 0.375 2.484375l0 10.375zm-7.390625 -1.75q0.75 0 1.375 -0.140625q0.625 -0.15625 1.171875 -0.4375q0.5625 -0.28125 1.0625 -0.671875q0.5 -0.40625 0.984375 -0.921875l0 -3.375q-1.96875 0.0625 -3.34375 0.3125q-1.375 0.25 -2.25 0.65625q-0.859375 0.390625 -1.25 0.9375q-0.390625 0.546875 -0.390625 1.21875q0 0.640625 0.203125 1.109375q0.21875 0.453125 0.5625 0.75q0.359375 0.296875 0.828125 0.4375q0.484375 0.125 1.046875 0.125zm14.880249 -14.453125l0 16.203125l-2.84375 0l0 -16.203125l2.84375 0zm0.640625 -5.09375q0 0.421875 -0.171875 0.78125q-0.15625 0.359375 -0.4375 0.640625q-0.28125 0.28125 -0.65625 0.4375q-0.359375 0.15625 -0.78125 0.15625q-0.40625 0 -0.78125 -0.15625q-0.359375 -0.15625 -0.640625 -0.4375q-0.265625 -0.28125 -0.4375 -0.640625q-0.15625 -0.359375 -0.15625 -0.78125q0 -0.421875 0.15625 -0.796875q0.171875 -0.375 0.4375 -0.65625q0.28125 -0.28125 0.640625 -0.4375q0.375 -0.15625 0.78125 -0.15625q0.421875 0 0.78125 0.15625q0.375 0.15625 0.65625 0.4375q0.28125 0.28125 0.4375 0.65625q0.171875 0.375 0.171875 0.796875zm7.5513916 -2.265625l0 23.5625l-2.84375 0l0 -23.5625l2.84375 0zm4.0982666 21.796875q0 -0.40625 0.15625 -0.765625q0.15625 -0.375 0.40625 -0.640625q0.265625 -0.28125 0.625 -0.4375q0.375 -0.171875 0.796875 -0.171875q0.421875 0 0.78125 0.171875q0.375 0.15625 0.640625 0.4375q0.28125 0.265625 0.421875 0.640625q0.15625 0.359375 0.15625 0.765625q0 0.4375 -0.15625 0.796875q-0.140625 0.359375 -0.421875 0.640625q-0.265625 0.265625 -0.640625 0.40625q-0.359375 0.15625 -0.78125 0.15625q-0.421875 0 -0.796875 -0.15625q-0.359375 -0.140625 -0.625 -0.40625q-0.25 -0.28125 -0.40625 -0.640625q-0.15625 -0.359375 -0.15625 -0.796875zm18.768433 -11.5625q-0.125 0.171875 -0.25 0.28125q-0.125 0.09375 -0.375 0.09375q-0.234375 0 -0.515625 -0.203125q-0.28125 -0.203125 -0.71875 -0.4375q-0.421875 -0.25 -1.046875 -0.4375q-0.609375 -0.203125 -1.515625 -0.203125q-1.171875 0 -2.09375 0.421875q-0.90625 0.421875 -1.53125 1.21875q-0.609375 0.796875 -0.921875 1.9375q-0.3125 1.140625 -0.3125 2.546875q0 1.46875 0.328125 2.609375q0.34375 1.140625 0.953125 1.921875q0.609375 0.78125 1.484375 1.1875q0.875 0.40625 1.953125 0.40625q1.046875 0 1.71875 -0.25q0.671875 -0.25 1.109375 -0.546875q0.453125 -0.3125 0.734375 -0.546875q0.296875 -0.25 0.578125 -0.25q0.375 0 0.546875 0.265625l0.796875 1.046875q-1.046875 1.296875 -2.640625 1.890625q-1.578125 0.59375 -3.328125 0.59375q-1.53125 0 -2.84375 -0.546875q-1.296875 -0.5625 -2.265625 -1.625q-0.953125 -1.078125 -1.5 -2.625q-0.546875 -1.546875 -0.546875 -3.53125q0 -1.8125 0.5 -3.34375q0.5 -1.53125 1.46875 -2.640625q0.96875 -1.125 2.390625 -1.75q1.421875 -0.625 3.265625 -0.625q1.703125 0 3.015625 0.5625q1.3125 0.546875 2.3125 1.546875l-0.75 1.03125zm10.444031 -3.140625q1.78125 0 3.203125 0.59375q1.4375 0.59375 2.4375 1.6875q1.0 1.078125 1.53125 2.625q0.546875 1.546875 0.546875 3.453125q0 1.921875 -0.546875 3.453125q-0.53125 1.53125 -1.53125 2.625q-1.0 1.09375 -2.4375 1.671875q-1.421875 0.578125 -3.203125 0.578125q-1.765625 0 -3.203125 -0.578125q-1.4375 -0.578125 -2.453125 -1.671875q-1.0 -1.09375 -1.546875 -2.625q-0.53125 -1.53125 -0.53125 -3.453125q0 -1.90625 0.53125 -3.453125q0.546875 -1.546875 1.546875 -2.625q1.015625 -1.09375 2.453125 -1.6875q1.4375 -0.59375 3.203125 -0.59375zm0 14.46875q2.40625 0 3.578125 -1.609375q1.1875 -1.609375 1.1875 -4.484375q0 -2.890625 -1.1875 -4.5q-1.171875 -1.625 -3.578125 -1.625q-1.203125 0 -2.109375 0.421875q-0.890625 0.40625 -1.5 1.1875q-0.59375 0.78125 -0.890625 1.9375q-0.296875 1.140625 -0.296875 2.578125q0 1.4375 0.296875 2.578125q0.296875 1.125 0.890625 1.90625q0.609375 0.78125 1.5 1.203125q0.90625 0.40625 2.109375 0.40625zm11.245178 2.0l0 -16.203125l1.6875 0q0.609375 0 0.765625 0.59375l0.21875 1.65625q0.890625 -1.109375 2.0 -1.8125q1.109375 -0.703125 2.578125 -0.703125q1.65625 0 2.671875 0.921875q1.015625 0.90625 1.46875 2.453125q0.328125 -0.875 0.875 -1.515625q0.5625 -0.640625 1.25 -1.046875q0.6875 -0.421875 1.453125 -0.609375q0.78125 -0.203125 1.578125 -0.203125q1.28125 0 2.28125 0.421875q1.0 0.40625 1.6875 1.1875q0.703125 0.78125 1.0625 1.921875q0.375 1.140625 0.375 2.625l0 10.3125l-2.84375 0l0 -10.3125q0 -1.90625 -0.828125 -2.890625q-0.828125 -0.984375 -2.421875 -0.984375q-0.703125 0 -1.34375 0.25q-0.625 0.234375 -1.109375 0.71875q-0.46875 0.484375 -0.75 1.21875q-0.28125 0.71875 -0.28125 1.6875l0 10.3125l-2.84375 0l0 -10.3125q0 -1.953125 -0.796875 -2.90625q-0.78125 -0.96875 -2.28125 -0.96875q-1.046875 0 -1.953125 0.5625q-0.90625 0.5625 -1.65625 1.546875l0 12.078125l-2.84375 0z" fill-rule="nonzero"/></g></svg>